<svg version="1.0" xmlns="http://www.w3.org/2000/svg"
 width="300.000000pt" height="291.000000pt" viewBox="0 0 300.000000 291.000000"
 preserveAspectRatio="xMidYMid meet">
<metadata>
Created by potrace 1.10, written by Peter Selinger 2001-2011
</metadata>
<g transform="translate(0.000000,291.000000) scale(0.100000,-0.100000)"
fill="#000000" stroke="none">
<path d="M8 2838 c-5 -97 -8 -786 -3 -773 2 6 6 170 9 365 3 195 7 383 8 418
2 34 1 62 -3 62 -4 0 -9 -33 -11 -72z"/>
<path d="M2179 2897 c6 -8 7 -18 3 -22 -4 -5 -1 -5 6 -1 10 6 10 11 1 22 -6 8
-14 14 -16 14 -3 0 0 -6 6 -13z"/>
<path d="M2401 2890 c-13 -11 -19 -20 -14 -20 6 0 18 9 28 20 23 25 17 25 -14
0z"/>
<path d="M2530 2889 c0 -11 -4 -18 -8 -15 -12 7 -12 -26 0 -41 6 -7 1 -17 -14
-28 -15 -12 -17 -15 -5 -12 21 8 22 0 3 -19 -9 -8 -35 -14 -68 -14 -29 -1 -64
-7 -78 -16 -24 -14 -24 -14 15 -9 22 4 50 8 62 11 12 2 24 0 27 -5 7 -10 -43
-66 -58 -66 -6 0 -10 -8 -8 -18 2 -10 -3 -17 -13 -17 -8 0 -15 -3 -15 -6 0 -6
30 -37 31 -32 0 2 2 11 4 21 7 36 15 48 27 41 7 -4 10 -4 6 0 -12 14 62 69
105 78 23 5 53 11 67 14 25 5 63 7 108 5 15 -1 21 -5 16 -13 -4 -6 -3 -8 4 -4
11 7 65 -37 56 -46 -2 -3 2 -8 9 -11 27 -10 6 33 -28 59 -51 39 -89 46 -159
29 -34 -7 -70 -17 -80 -21 -15 -6 -17 -4 -10 7 18 30 30 149 15 149 -6 0 -11
-9 -11 -21z"/>
<path d="M2788 2840 c-29 -81 -28 -92 3 -22 11 26 25 55 30 64 11 22 11 28 0
28 -4 0 -20 -31 -33 -70z"/>
<path d="M2150 2879 c0 -5 5 -7 10 -4 6 3 10 8 10 11 0 2 -4 4 -10 4 -5 0 -10
-5 -10 -11z"/>
<path d="M2047 2854 c-3 -3 -3 -13 0 -21 5 -12 7 -12 14 -1 15 23 4 40 -14 22z"/>
<path d="M2450 2849 c0 -5 5 -7 10 -4 6 3 10 8 10 11 0 2 -4 4 -10 4 -5 0 -10
-5 -10 -11z"/>
<path d="M1136 2824 c-4 -9 -4 -19 -2 -21 8 -8 26 8 26 23 0 19 -16 18 -24 -2z"/>
<path d="M1995 2820 c-3 -6 1 -7 9 -4 18 7 21 14 7 14 -6 0 -13 -4 -16 -10z"/>
<path d="M2345 2790 c-3 -5 -2 -10 4 -10 5 0 13 5 16 10 3 6 2 10 -4 10 -5 0
-13 -4 -16 -10z"/>
<path d="M1780 2786 c0 -2 9 -6 20 -9 11 -3 20 -1 20 4 0 5 -9 9 -20 9 -11 0
-20 -2 -20 -4z"/>
<path d="M1850 2782 c0 -7 -4 -10 -10 -7 -5 3 -10 2 -10 -3 0 -11 30 -25 37
-18 3 2 0 13 -6 23 -6 11 -11 13 -11 5z"/>
<path d="M1875 2780 c3 -5 16 -10 28 -9 21 0 21 1 2 9 -28 12 -37 12 -30 0z"/>
<path d="M1755 2770 c9 -15 -13 -22 -35 -10 -16 8 -18 8 -14 -4 7 -18 -33 -26
-58 -12 -12 7 -21 7 -30 -2 -9 -9 -7 -12 12 -12 23 0 23 0 5 -20 -17 -18 -17
-20 -2 -14 31 12 17 -11 -18 -30 -35 -19 -42 -30 -26 -40 10 -7 101 50 101 64
0 5 11 10 25 10 31 0 31 -6 3 -30 l-23 -19 23 4 c26 5 56 31 48 43 -3 5 -26 9
-50 9 -25 0 -43 -4 -40 -8 3 -5 1 -9 -5 -9 -16 0 -22 17 -8 27 6 6 35 11 62
12 54 3 133 18 100 20 -11 1 -33 8 -48 16 -15 8 -25 10 -22 5z m30 -28 c-3 -3
-11 0 -18 7 -9 10 -8 11 6 5 10 -3 15 -9 12 -12z m-149 -87 c-11 -8 -22 -12
-25 -9 -6 6 19 24 34 24 6 -1 1 -7 -9 -15z"/>
<path d="M2040 2761 c0 -6 4 -13 10 -16 6 -3 7 1 4 9 -7 18 -14 21 -14 7z"/>
<path d="M1930 2744 c30 -7 62 -11 70 -8 25 10 -18 23 -75 22 l-50 0 55 -14z"/>
<path d="M2075 2750 c-3 -6 1 -7 9 -4 18 7 21 14 7 14 -6 0 -13 -4 -16 -10z"/>
<path d="M2590 2740 c0 -6 7 -10 15 -10 8 0 15 2 15 4 0 2 -7 6 -15 10 -8 3
-15 1 -15 -4z"/>
<path d="M1563 2728 c-25 -12 -37 -45 -17 -45 13 0 18 11 15 29 0 4 5 5 13 2
7 -3 16 2 19 10 7 18 1 19 -30 4z"/>
<path d="M1849 2738 c-10 -35 -7 -46 11 -41 11 3 20 0 20 -6 0 -19 32 -12 37
8 3 12 11 17 19 14 18 -7 1 -30 -31 -44 -17 -8 -16 -9 5 -3 14 3 37 5 53 5 15
-1 27 4 27 10 0 6 -9 8 -21 4 -15 -5 -20 -3 -17 6 5 16 49 20 68 5 13 -9 13
-9 2 6 -7 9 -21 16 -30 16 -9 0 -36 3 -59 7 -30 5 -43 4 -43 -4 0 -6 -7 -11
-16 -11 -10 0 -14 6 -10 15 3 8 1 15 -4 15 -6 0 -10 -1 -11 -2z"/>
<path d="M2180 2730 c-8 -5 -10 -10 -5 -10 6 0 17 5 25 10 8 5 11 10 5 10 -5
0 -17 -5 -25 -10z"/>
<path d="M2263 2735 c4 -5 -3 -19 -15 -32 l-22 -23 35 16 c19 10 35 18 36 18
1 1 -8 8 -20 15 -12 8 -19 10 -14 6z"/>
<path d="M507 2723 c-10 -9 -9 -23 1 -23 5 0 9 7 9 15 0 17 -1 18 -10 8z"/>
<path d="M1806 2721 c-4 -6 -14 -7 -23 -4 -11 4 -14 3 -9 -5 4 -7 13 -12 21
-12 15 0 30 18 22 26 -3 3 -8 1 -11 -5z"/>
<path d="M2546 2717 c3 -10 9 -15 12 -12 3 3 0 11 -7 18 -10 9 -11 8 -5 -6z"/>
<path d="M2570 2720 c0 -5 5 -10 11 -10 5 0 7 5 4 10 -3 6 -8 10 -11 10 -2 0
-4 -4 -4 -10z"/>
<path d="M1400 2712 c0 -6 6 -13 13 -15 7 -4 6 -6 -4 -6 -9 -1 -20 -13 -23
-27 -10 -37 -4 -37 21 2 18 28 19 35 7 45 -9 7 -14 8 -14 1z"/>
<path d="M1466 2705 c-4 -13 -2 -14 14 -5 13 7 20 7 20 1 0 -6 8 -7 17 -4 15
6 15 7 -3 14 -30 12 -41 10 -48 -6z"/>
<path d="M2326 2711 c-3 -5 1 -11 9 -14 9 -4 12 -1 8 9 -6 16 -10 17 -17 5z"/>
<path d="M1350 2695 c-7 -8 -8 -15 -2 -15 5 0 15 7 22 15 7 8 8 15 2 15 -5 0
-15 -7 -22 -15z"/>
<path d="M2612 2688 c-25 -16 -30 -23 -20 -29 7 -5 18 -9 23 -9 6 0 4 4 -3 9
-10 6 -3 10 22 15 20 4 34 11 31 17 -9 13 9 11 23 -3 7 -7 12 -9 12 -5 0 3 11
-4 25 -17 14 -13 25 -28 25 -34 0 -6 6 -13 13 -15 6 -3 4 -6 -7 -6 -18 -1 -18
-2 -1 -21 11 -13 14 -20 6 -20 -7 0 -19 -7 -28 -15 -8 -8 -19 -13 -24 -10 -5
4 -9 1 -9 -4 0 -6 -8 -11 -17 -11 -15 0 -15 -2 -4 -9 9 -6 19 -4 28 5 8 8 19
12 24 8 5 -3 2 -12 -6 -20 -18 -19 -19 -31 -2 -37 7 -3 0 -9 -15 -16 -16 -6
-28 -13 -28 -16 0 -4 4 -4 9 0 5 3 12 1 15 -4 4 -5 2 -13 -4 -16 -6 -4 -8 -15
-5 -26 4 -11 2 -19 -4 -19 -6 0 -11 -10 -11 -21 0 -17 -3 -19 -14 -10 -10 9
-13 7 -13 -6 0 -46 -3 -58 -12 -44 -6 9 -11 10 -15 2 -4 -6 -3 -11 2 -11 13 0
-12 -90 -27 -100 -7 -4 -23 -5 -35 -2 -14 3 -18 1 -11 -6 16 -17 71 -19 67 -3
-2 7 3 11 10 9 8 -3 14 3 15 16 6 80 25 138 37 118 10 -17 26 -15 26 4 0 8 -4
12 -10 9 -5 -3 -10 1 -10 10 0 8 6 18 14 21 11 4 13 12 6 29 -5 14 -5 26 3 34
6 6 8 11 3 11 -4 0 0 7 8 16 13 13 19 39 15 70 0 3 7 11 15 17 9 7 18 21 20
32 2 11 5 25 7 30 6 20 -11 76 -21 70 -5 -3 -10 1 -10 9 0 30 -91 33 -138 4z"/>
<path d="M1434 2677 c-3 -12 -13 -30 -22 -40 -18 -20 -9 -35 11 -19 8 7 16 9
20 6 3 -3 3 3 0 15 -4 15 1 23 16 29 20 7 20 8 1 19 -16 11 -20 9 -26 -10z"/>
<path d="M1590 2689 c0 -5 5 -7 10 -4 6 3 10 8 10 11 0 2 -4 4 -10 4 -5 0 -10
-5 -10 -11z"/>
<path d="M600 2665 c-12 -13 -20 -28 -16 -33 3 -5 -6 -15 -19 -22 -15 -8 -25
-22 -25 -36 0 -13 -4 -25 -9 -28 -11 -7 -20 -66 -11 -66 4 0 10 14 14 30 4 20
15 34 33 42 16 7 40 20 55 31 27 18 29 18 104 -8 74 -26 104 -27 104 -5 0 7
-8 9 -20 5 -11 -3 -40 3 -67 15 -27 12 -61 20 -78 20 -16 -1 -37 -2 -46 -1
-24 2 -18 43 9 57 31 16 34 20 13 21 -11 1 -29 -9 -41 -22z m0 -69 c0 -2 -7
-6 -15 -10 -8 -3 -15 -1 -15 4 0 6 7 10 15 10 8 0 15 -2 15 -4z"/>
<path d="M1838 2682 c-16 -2 -28 -8 -28 -13 0 -8 48 -2 59 7 8 7 -4 9 -31 6z"/>
<path d="M2191 2664 c-13 -13 -28 -21 -34 -17 -5 3 -8 2 -5 -3 3 -5 0 -15 -8
-22 -8 -7 -14 -9 -14 -5 0 5 -9 9 -20 10 -11 1 -20 -3 -20 -8 0 -6 -9 -8 -19
-4 -11 3 -22 1 -26 -5 -3 -6 -10 -8 -14 -6 -4 3 -13 0 -21 -5 -11 -8 -4 -9 25
-5 22 3 54 6 70 6 20 0 44 13 75 39 25 21 43 41 40 44 -3 3 -16 -5 -29 -19z"/>
<path d="M2271 2673 c0 -11 3 -13 6 -5 2 6 10 9 15 6 7 -4 8 -2 4 4 -11 18
-26 14 -25 -5z"/>
<path d="M700 2669 c0 -5 -5 -7 -12 -3 -7 4 -8 3 -4 -4 7 -11 -11 -17 -40 -13
-7 1 -14 -5 -17 -13 -7 -18 34 -16 57 4 19 15 76 22 76 9 0 -5 -6 -9 -14 -9
-8 0 -18 -4 -21 -10 -9 -15 57 -38 93 -32 20 2 32 0 32 -7 0 -6 8 -11 18 -11
10 0 23 -5 29 -11 8 -8 13 -8 18 1 4 7 -1 14 -14 17 -12 3 -21 9 -21 14 0 5
-10 9 -22 9 -13 0 -29 4 -37 9 -8 5 -24 6 -36 1 -12 -5 -28 -5 -35 0 -9 6 -6
10 11 15 33 10 54 45 28 45 -5 0 -7 -4 -4 -10 3 -5 2 -10 -4 -10 -5 0 -13 5
-16 10 -8 13 -65 13 -65 -1z"/>
<path d="M1491 2661 c-31 -31 -17 -54 28 -47 34 6 35 6 16 -9 -11 -8 -26 -13
-35 -10 -12 5 -12 4 -3 -6 9 -9 18 -8 38 5 21 14 24 20 14 32 -9 12 -9 13 2 9
8 -3 20 4 27 15 12 20 11 20 -7 11 -11 -6 -30 -11 -43 -11 -18 0 -20 -2 -8
-10 12 -7 8 -10 -15 -10 -23 0 -27 3 -15 10 8 5 11 10 5 11 -5 0 1 4 15 8 16
4 21 9 13 14 -7 5 -21 -1 -32 -12z"/>
<path d="M2001 2673 c-1 -7 -13 -13 -28 -13 -26 0 -26 -1 -7 -15 16 -13 16
-14 2 -9 -10 3 -18 2 -18 -4 0 -6 8 -9 18 -7 9 1 16 8 15 14 -2 6 2 11 7 11 6
0 10 -4 10 -10 0 -14 27 -13 36 2 5 8 2 9 -9 5 -9 -3 -19 -1 -23 5 -4 6 -3 8
4 4 6 -3 14 -1 18 5 4 7 3 9 -4 5 -5 -3 -13 0 -15 6 -4 10 -6 10 -6 1z"/>
<path d="M845 2660 c4 -6 11 -8 16 -5 14 9 11 15 -7 15 -8 0 -12 -5 -9 -10z"/>
<path d="M2477 2650 c-9 -11 -24 -20 -34 -20 -9 0 -14 -2 -11 -5 12 -12 56 7
61 26 6 24 5 24 -16 -1z"/>
<path d="M2810 2657 c0 -9 4 -17 9 -17 6 0 6 -12 1 -30 -5 -16 -5 -30 0 -30
15 0 18 54 4 74 -12 18 -14 18 -14 3z"/>
<path d="M2195 2630 c-24 -19 -32 -30 -21 -30 9 0 16 -8 16 -20 0 -30 1 -34
12 -47 7 -9 7 -13 -2 -13 -8 0 -10 -3 -7 -7 4 -3 2 -12 -4 -20 -22 -26 7 -12
36 18 17 17 47 42 68 55 44 29 50 51 7 29 -16 -9 -30 -19 -30 -24 0 -5 -8 -11
-17 -15 -10 -3 -24 -9 -32 -12 -10 -5 -13 -1 -8 15 3 11 1 19 -4 15 -5 -3 -9
9 -9 25 0 17 4 31 8 31 13 0 48 29 36 30 -6 0 -28 -13 -49 -30z"/>
<path d="M805 2640 c3 -5 12 -7 20 -3 21 7 19 13 -6 13 -11 0 -18 -4 -14 -10z"/>
<path d="M884 2636 c23 -18 36 -20 36 -6 0 6 -4 10 -9 10 -5 0 -18 3 -28 6
-16 5 -16 4 1 -10z"/>
<path d="M1270 2630 c0 -5 5 -10 11 -10 5 0 7 5 4 10 -3 6 -8 10 -11 10 -2 0
-4 -4 -4 -10z"/>
<path d="M1320 2620 c-10 -18 -10 -21 2 -14 7 5 24 8 38 7 19 -1 20 0 5 4 -11
3 -23 10 -26 16 -4 5 -12 0 -19 -13z"/>
<path d="M1665 2630 c-3 -5 -1 -10 4 -10 6 0 11 5 11 10 0 6 -2 10 -4 10 -3 0
-8 -4 -11 -10z"/>
<path d="M1915 2631 c-6 -10 33 -36 42 -28 2 3 -5 8 -16 12 -12 3 -19 11 -16
16 4 5 4 9 1 9 -3 0 -7 -4 -11 -9z"/>
<path d="M975 2620 c3 -5 8 -10 11 -10 2 0 4 5 4 10 0 6 -5 10 -11 10 -5 0 -7
-4 -4 -10z"/>
<path d="M2342 2608 c2 -6 10 -13 16 -14 7 -1 8 0 2 3 -5 2 -8 9 -4 14 3 5 0
9 -6 9 -7 0 -10 -5 -8 -12z"/>
<path d="M2520 2612 c0 -5 -11 -15 -25 -22 -14 -7 -25 -19 -25 -26 0 -7 -5
-14 -12 -16 -7 -3 -8 -10 -4 -17 7 -11 10 -11 17 0 7 11 13 9 29 -11 l21 -25
-12 27 c-10 22 -8 31 10 57 13 18 17 32 11 36 -5 3 -10 2 -10 -3z"/>
<path d="M1450 2602 c0 -5 7 -9 15 -9 8 0 12 4 9 9 -3 4 -9 8 -15 8 -5 0 -9
-4 -9 -8z"/>
<path d="M1619 2593 c-13 -16 -12 -17 4 -4 9 7 17 15 17 17 0 8 -8 3 -21 -13z"/>
<path d="M1340 2590 c0 -5 5 -10 11 -10 5 0 7 5 4 10 -3 6 -8 10 -11 10 -2 0
-4 -4 -4 -10z"/>
<path d="M935 2580 c3 -5 8 -10 11 -10 2 0 4 5 4 10 0 6 -5 10 -11 10 -5 0 -7
-4 -4 -10z"/>
<path d="M1178 2583 c7 -3 16 -2 19 1 4 3 -2 6 -13 5 -11 0 -14 -3 -6 -6z"/>
<path d="M1320 2570 c0 -11 4 -20 9 -20 5 0 7 9 4 20 -3 11 -7 20 -9 20 -2 0
-4 -9 -4 -20z"/>
<path d="M1556 2581 c-3 -4 6 -6 19 -3 14 2 25 6 25 8 0 8 -39 4 -44 -5z"/>
<path d="M2065 2580 c-44 -4 -132 -10 -195 -14 -140 -7 -333 -26 -340 -33 -3
-3 36 -2 85 1 l90 5 -75 -13 c-41 -7 -78 -12 -82 -10 -4 3 -9 0 -13 -6 -3 -5
-16 -10 -27 -10 -12 0 -19 -3 -16 -6 9 -8 211 27 227 40 11 8 13 8 7 -1 -4 -7
-2 -13 3 -13 6 0 11 7 11 16 0 8 4 12 10 9 16 -10 50 -15 50 -7 0 4 21 8 48 9
38 1 41 0 17 -6 -26 -6 -27 -8 -10 -13 11 -3 40 -6 65 -7 25 -1 59 -4 75 -7
23 -4 26 -3 15 5 -8 6 -23 11 -32 11 -10 0 -18 6 -18 13 0 9 -2 9 -8 0 -10
-15 -49 -13 -49 3 0 13 46 12 67 -1 8 -5 11 -4 7 2 -4 6 21 10 64 11 38 1 74
4 79 7 4 3 15 3 23 0 17 -7 20 -102 3 -113 -6 -4 -18 -20 -26 -37 -8 -16 -20
-37 -27 -45 -7 -9 -14 -50 -17 -91 -4 -86 -24 -139 -63 -173 -35 -31 -153 -71
-269 -91 -94 -17 -291 -17 -301 -1 -4 5 0 6 8 1 12 -7 12 -6 1 7 -7 9 -21 14
-33 11 -11 -3 -19 -2 -18 3 3 18 -1 34 -8 33 -21 -3 -34 2 -32 14 2 19 -12 57
-22 57 -5 0 -9 10 -9 23 0 14 -3 18 -8 10 -6 -9 -13 -4 -24 15 -21 36 -21 33
-9 64 8 20 7 29 -5 39 -8 6 -17 9 -21 6 -3 -4 1 -9 9 -12 10 -4 14 -14 11 -26
-7 -27 -15 -24 -40 17 -18 28 -21 43 -16 82 3 26 10 53 16 60 12 15 -3 15 -66
-2 -33 -8 -68 -10 -110 -4 -54 7 -101 8 -182 6 -11 0 -31 2 -44 6 -13 3 -31 2
-40 -3 -9 -4 -29 -5 -46 -1 -25 5 -18 8 37 14 37 5 85 5 105 2 37 -6 37 -6 13
8 -32 18 -91 14 -251 -20 -68 -15 -177 -36 -241 -48 -64 -11 -119 -23 -121
-26 -11 -11 14 -105 33 -125 11 -12 36 -61 55 -109 39 -96 54 -126 72 -141 9
-7 10 -31 3 -90 -9 -83 -16 -159 -25 -260 -11 -120 -16 -145 -29 -145 -7 0
-38 -18 -69 -40 -30 -22 -58 -40 -62 -40 -4 0 -13 -6 -20 -12 -7 -7 -32 -24
-54 -37 -22 -14 -39 -27 -37 -29 6 -6 95 47 148 89 26 20 67 45 91 54 l44 17
7 111 c4 62 8 121 10 132 5 26 19 162 20 195 1 14 3 24 6 24 104 -30 332 -39
408 -16 88 27 128 88 178 269 9 35 22 67 28 72 6 6 32 13 58 16 56 8 69 -4
118 -101 18 -36 37 -71 44 -77 19 -22 37 -57 32 -65 -3 -4 5 -9 16 -9 12 -1
25 -8 29 -15 5 -7 9 -8 9 -3 0 6 4 4 9 -4 9 -14 19 -18 66 -24 12 -2 25 -6 30
-8 6 -3 30 -5 55 -5 25 1 48 -3 52 -9 5 -6 8 -5 8 3 0 7 14 12 38 12 20 0 78
9 127 19 243 51 308 112 322 306 4 67 10 86 32 115 24 30 27 42 24 90 -4 62
-9 81 -20 79 -4 -1 -44 -5 -88 -9z m-1352 -167 c-7 -2 -19 -2 -25 0 -7 3 -2 5
12 5 14 0 19 -2 13 -5z m263 -19 c17 5 24 2 24 -9 0 -8 5 -15 10 -15 6 0 10
-7 10 -15 0 -8 7 -15 15 -15 13 0 13 3 3 20 -7 11 -16 20 -20 20 -5 0 -8 5 -8
10 0 6 7 10 15 10 8 0 15 -3 15 -8 0 -9 104 -8 145 1 27 7 30 5 31 -18 1 -14
-2 -22 -8 -19 -6 4 -8 -2 -3 -15 5 -17 1 -23 -20 -31 -34 -13 -55 -13 -35 0
14 9 12 12 -6 9 -4 0 -10 5 -15 12 -4 8 -11 10 -15 6 -4 -4 -3 -12 4 -19 8 -8
4 -18 -18 -38 -16 -15 -32 -40 -35 -56 -17 -75 -25 -72 -16 6 7 60 4 100 -7
100 -4 0 -8 -35 -10 -77 -5 -159 -49 -259 -130 -296 -41 -19 -64 -22 -182 -21
-207 0 -252 25 -295 160 -10 33 -19 88 -19 124 l-1 65 55 27 c30 15 63 27 73
27 9 1 17 6 17 12 0 22 -130 -23 -165 -57 -9 -9 -12 -30 -10 -62 3 -43 2 -45
-11 -28 -8 11 -14 26 -14 34 0 7 -4 11 -9 8 -9 -6 -21 39 -21 76 0 14 5 18 15
15 8 -4 17 -2 20 3 4 6 18 10 33 10 22 0 24 -2 12 -11 -12 -9 -12 -10 3 -5 10
3 24 6 30 6 8 0 7 4 -2 9 -10 7 -8 9 10 9 13 0 58 7 99 17 84 20 365 35 393
22 11 -5 30 -6 43 -3z m1121 -56 c-3 -8 -6 -5 -6 6 -1 11 2 17 5 13 3 -3 4
-12 1 -19z"/>
<path d="M702 2369 c7 -4 5 -10 -4 -15 -8 -5 -20 -18 -26 -30 -11 -21 -10 -23
51 -52 4 -2 7 2 7 7 0 6 -6 11 -14 11 -7 0 -16 9 -19 20 -4 16 2 22 31 30 51
14 62 13 62 -8 0 -19 33 -52 52 -52 7 0 31 7 55 16 73 28 67 84 -9 84 -22 0
-46 -7 -55 -15 -8 -9 -18 -13 -21 -10 -4 3 0 10 8 16 10 6 -8 8 -57 7 -39 -2
-67 -6 -61 -9z m228 -34 c0 -2 -8 -9 -17 -14 -15 -7 -18 -5 -18 14 0 19 3 21
18 14 9 -5 17 -12 17 -14z m-46 6 c10 -16 -5 -41 -25 -41 -21 0 -25 15 -6 24
6 4 2 4 -10 2 -27 -5 -41 10 -16 17 31 8 52 7 57 -2z"/>
<path d="M1097 2373 c-10 -9 -9 -23 1 -23 5 0 9 7 9 15 0 17 -1 18 -10 8z"/>
<path d="M1136 2369 c2 -4 -2 -10 -8 -12 -8 -4 -7 -6 3 -6 9 -1 19 5 22 12 3
8 -1 14 -9 14 -7 0 -11 -4 -8 -8z"/>
<path d="M637 2363 c-11 -10 -8 -33 3 -33 6 0 10 6 10 14 0 8 6 17 13 19 8 4
6 6 -4 6 -9 1 -19 -2 -22 -6z"/>
<path d="M965 2341 c-7 -12 12 -24 25 -16 11 7 4 25 -10 25 -5 0 -11 -4 -15
-9z"/>
<path d="M510 2311 c-8 -16 -5 -27 14 -55 29 -43 36 -38 25 17 -4 23 -8 45 -9
50 0 14 -19 7 -30 -12z"/>
<path d="M980 2310 c-23 -7 -23 -8 -3 -9 12 -1 25 4 28 9 3 6 5 10 3 9 -2 -1
-14 -5 -28 -9z"/>
<path d="M930 2276 c0 -13 -6 -15 -27 -11 -27 5 -27 5 -5 -5 13 -5 28 -7 34
-4 6 4 14 1 18 -5 5 -9 11 -8 24 4 20 21 21 36 1 29 -8 -4 -12 -11 -8 -18 3
-6 -3 -2 -15 8 -20 17 -22 17 -22 2z"/>
<path d="M728 2265 c-25 -7 -32 -13 -24 -20 12 -11 54 -13 71 -4 6 3 21 4 35
3 31 -3 64 6 55 14 -4 4 -15 8 -26 8 -10 1 -20 2 -21 4 -9 6 -59 4 -90 -5z"/>
<path d="M1001 2267 c-8 -10 -7 -14 2 -14 8 0 14 6 14 14 0 7 -1 13 -2 13 -2
0 -8 -6 -14 -13z"/>
<path d="M576 2241 c-7 -11 22 -36 31 -27 3 3 1 6 -6 6 -8 0 -11 7 -7 15 6 16
-9 21 -18 6z"/>
<path d="M897 2215 c-15 -14 -34 -25 -41 -25 -8 0 -20 -7 -27 -16 -10 -12 2
-9 37 9 28 14 56 33 63 41 21 25 -1 18 -32 -9z"/>
<path d="M509 2221 c-8 -22 10 -151 27 -203 16 -49 44 -83 30 -37 -17 55 -35
146 -36 179 -2 43 -15 81 -21 61z"/>
<path d="M651 2193 c3 -20 -2 -25 -15 -14 -8 7 -16 8 -19 4 -11 -18 -10 -79 2
-98 12 -20 12 -19 8 2 -3 15 -1 20 8 16 8 -2 18 5 24 16 14 25 14 41 1 41 -5
0 -10 -7 -10 -15 0 -9 -6 -12 -15 -9 -22 9 -18 21 10 28 26 7 32 20 15 31 -6
4 -10 3 -9 -2z"/>
<path d="M895 2170 c-3 -5 1 -10 10 -10 9 0 13 5 10 10 -3 6 -8 10 -10 10 -2
0 -7 -4 -10 -10z"/>
<path d="M778 2144 c-38 -20 -36 -28 2 -9 17 9 30 18 30 20 0 7 -1 6 -32 -11z"/>
<path d="M888 2103 c6 -2 18 -2 25 0 6 3 1 5 -13 5 -14 0 -19 -2 -12 -5z"/>
<path d="M796 2083 c-6 -14 -5 -15 5 -6 7 7 10 15 7 18 -3 3 -9 -2 -12 -12z"/>
<path d="M611 2033 c0 -25 1 -26 9 -8 12 27 12 35 0 35 -5 0 -10 -12 -9 -27z"/>
<path d="M633 2006 c-34 -16 -28 -22 17 -18 34 3 37 6 25 18 -7 8 -15 13 -17
13 -2 -1 -13 -6 -25 -13z"/>
<path d="M713 2003 c9 -2 25 -2 35 0 9 3 1 5 -18 5 -19 0 -27 -2 -17 -5z"/>
<path d="M2375 2580 c-3 -5 -3 -10 1 -10 4 0 -3 -11 -15 -24 -17 -18 -19 -25
-9 -29 10 -4 10 -8 -2 -16 -12 -8 -12 -11 -1 -11 9 0 12 -8 9 -24 -3 -16 0
-27 9 -30 22 -9 23 -8 23 14 0 11 5 20 12 20 6 0 4 6 -7 14 -12 8 -16 20 -13
34 3 12 1 23 -6 26 -6 2 0 5 13 5 19 1 21 4 12 15 -9 11 -9 15 1 19 9 4 7 6
-4 6 -9 1 -20 -3 -23 -9z"/>
<path d="M1233 2573 c-7 -2 -13 -11 -13 -18 0 -8 6 -17 13 -21 6 -4 9 -4 5 0
-10 12 15 34 32 29 13 -4 13 -4 0 6 -16 12 -19 12 -37 4z"/>
<path d="M1375 2570 c3 -5 8 -10 11 -10 2 0 4 5 4 10 0 6 -5 10 -11 10 -5 0
-7 -4 -4 -10z"/>
<path d="M2810 2555 c-7 -8 -10 -15 -6 -15 3 0 -10 -25 -29 -55 -20 -30 -32
-55 -28 -55 5 0 22 21 39 48 42 64 59 120 24 77z"/>
<path d="M934 2553 c10 -10 46 -11 40 -1 -3 4 -15 8 -26 8 -12 0 -18 -3 -14
-7z"/>
<path d="M2650 2545 c0 -8 2 -15 4 -15 2 0 6 7 10 15 3 8 1 15 -4 15 -6 0 -10
-7 -10 -15z"/>
<path d="M560 2540 c-13 -8 -13 -10 2 -10 9 0 20 5 23 10 8 13 -5 13 -25 0z"/>
<path d="M1275 2530 c3 -5 8 -10 11 -10 2 0 4 5 4 10 0 6 -5 10 -11 10 -5 0
-7 -4 -4 -10z"/>
<path d="M2525 2530 c3 -5 8 -10 11 -10 2 0 4 5 4 10 0 6 -5 10 -11 10 -5 0
-7 -4 -4 -10z"/>
<path d="M2550 2530 c0 -5 5 -10 10 -10 6 0 10 5 10 10 0 6 -4 10 -10 10 -5 0
-10 -4 -10 -10z"/>
<path d="M2631 2524 c0 -11 3 -14 6 -6 3 7 2 16 -1 19 -3 4 -6 -2 -5 -13z"/>
<path d="M1498 2523 c7 -3 16 -2 19 1 4 3 -2 6 -13 5 -11 0 -14 -3 -6 -6z"/>
<path d="M545 2510 c3 -5 10 -10 16 -10 5 0 9 5 9 10 0 6 -7 10 -16 10 -8 0
-12 -4 -9 -10z"/>
<path d="M1430 2510 c-13 -9 -13 -10 0 -10 8 0 22 5 30 10 13 9 13 10 0 10 -8
0 -22 -5 -30 -10z"/>
<path d="M1817 2503 c6 -15 13 -16 31 -4 10 6 7 10 -11 13 -18 4 -24 1 -20 -9z"/>
<path d="M2030 2511 c0 -5 7 -12 16 -15 14 -5 15 -4 4 9 -14 17 -20 19 -20 6z"/>
<path d="M825 2500 c-3 -5 -1 -10 4 -10 6 0 11 5 11 10 0 6 -2 10 -4 10 -3 0
-8 -4 -11 -10z"/>
<path d="M1157 2499 c7 -7 15 -10 18 -7 3 3 -2 9 -12 12 -14 6 -15 5 -6 -5z"/>
<path d="M1233 2488 c-3 -6 -1 -8 5 -4 5 3 12 1 14 -5 2 -6 14 -9 27 -7 22 3
21 4 -8 15 -22 8 -33 8 -38 1z"/>
<path d="M1399 2486 c9 -11 6 -15 -15 -20 -31 -8 -45 1 -24 15 13 9 13 10 0 6
-8 -2 -14 -12 -14 -21 1 -9 -3 -16 -8 -16 -5 0 -25 -16 -44 -35 -25 -26 -34
-44 -34 -68 0 -23 3 -28 9 -18 5 8 7 20 4 27 -10 26 57 83 120 103 34 11 52
20 40 20 -13 1 -23 6 -23 11 0 6 -5 10 -11 10 -8 0 -8 -4 0 -14z"/>
<path d="M1465 2490 c-3 -5 -1 -10 4 -10 6 0 11 5 11 10 0 6 -2 10 -4 10 -3 0
-8 -4 -11 -10z"/>
<path d="M1661 2490 c-24 -5 -48 -7 -54 -3 -6 3 -7 1 -3 -5 4 -7 1 -12 -6 -12
-13 0 -53 -29 -98 -71 -10 -10 -33 -20 -51 -24 -19 -5 -28 -10 -20 -13 19 -6
90 19 115 41 12 10 39 26 61 36 l41 18 2 -23 c1 -13 3 -29 4 -36 2 -9 -20 -16
-74 -22 -60 -7 -77 -13 -81 -27 -4 -15 -1 -16 18 -9 13 5 32 6 44 3 12 -3 21
-1 21 5 0 6 13 10 30 10 16 -1 35 4 42 9 7 6 46 20 86 32 44 13 70 26 66 32
-4 8 -10 7 -17 0 -6 -6 -21 -11 -34 -11 -13 0 -32 -5 -43 -12 -10 -7 -23 -8
-27 -4 -4 5 -2 11 5 13 6 3 9 9 6 14 -3 6 -11 5 -20 -2 -9 -7 -14 -8 -14 -1 0
6 10 14 23 18 12 4 25 12 29 18 4 6 10 7 14 3 4 -3 1 -13 -6 -22 -10 -12 -10
-15 4 -15 9 0 15 3 15 8 -3 18 2 32 11 32 5 0 7 -7 3 -16 -5 -14 -3 -15 14 -6
14 8 23 8 31 0 7 -7 12 -9 12 -5 0 4 9 -2 19 -12 13 -13 27 -18 42 -14 l22 6
-24 18 c-13 10 -28 19 -33 19 -5 0 -17 6 -25 14 -21 19 -96 27 -150 16z"/>
<path d="M1862 2491 c-7 -4 1 -14 23 -26 19 -10 38 -16 41 -13 9 10 -51 47
-64 39z"/>
<path d="M644 2468 l-19 -23 23 19 c21 18 27 26 19 26 -2 0 -12 -10 -23 -22z"/>
<path d="M1536 2480 c-22 -4 -47 -17 -57 -28 -9 -12 -20 -18 -23 -14 -4 3 -4
-2 0 -11 6 -17 9 -16 33 6 14 14 43 30 64 37 20 6 37 13 37 16 0 5 0 5 -54 -6z"/>
<path d="M2068 2468 c-3 -7 -1 -24 3 -38 6 -22 7 -20 8 13 1 38 -3 47 -11 25z"/>
<path d="M2419 2459 c-10 -19 -8 -20 10 -14 12 4 21 2 21 -4 0 -6 8 -7 17 -4
12 5 15 2 10 -10 -4 -12 -1 -17 9 -17 11 0 14 -6 10 -16 -3 -8 -2 -12 4 -9 10
6 50 -29 50 -44 0 -5 -6 -16 -13 -23 -15 -14 -6 -29 23 -41 10 -3 7 -6 -8 -6
-13 -1 -20 -5 -17 -11 3 -5 2 -16 -2 -24 -7 -13 -14 -12 -51 4 -23 10 -42 26
-42 34 0 8 -4 17 -8 20 -7 4 -7 -63 0 -69 2 -2 25 -6 52 -9 27 -4 52 -9 56
-11 3 -2 7 6 7 17 1 12 7 26 14 32 9 8 10 7 4 -3 -5 -10 -4 -12 4 -7 6 4 9 11
6 16 -3 4 1 11 7 13 10 4 10 6 0 6 -10 1 -10 6 -1 22 7 13 7 19 1 15 -6 -3
-13 -2 -17 4 -3 5 -2 10 3 10 5 0 9 7 9 15 0 8 -6 15 -14 15 -11 0 -18 14 -10
23 6 10 -26 35 -39 30 -8 -3 -14 0 -14 6 0 13 -48 61 -61 61 -5 0 -13 -9 -20
-21z"/>
<path d="M2657 2460 c-3 -11 -2 -22 2 -24 4 -3 8 6 9 20 2 29 -4 31 -11 4z"/>
<path d="M473 2431 c-84 -50 -84 -51 -7 -35 37 8 70 17 73 19 6 7 8 55 1 54
-3 0 -33 -17 -67 -38z"/>
<path d="M1980 2450 c0 -6 7 -10 15 -10 8 0 15 2 15 4 0 2 -7 6 -15 10 -8 3
-15 1 -15 -4z"/>
<path d="M2103 2448 c-14 -18 -22 -68 -12 -68 5 0 10 8 11 18 2 32 4 37 11 50
5 6 6 12 4 12 -3 0 -9 -6 -14 -12z"/>
<path d="M1270 2440 c-8 -5 -11 -12 -8 -16 4 -3 14 1 23 10 18 17 9 21 -15 6z"/>
<path d="M1907 2419 c7 -7 15 -10 18 -7 3 3 -2 9 -12 12 -14 6 -15 5 -6 -5z"/>
<path d="M1960 2420 c-5 -3 0 -11 11 -19 12 -7 18 -8 14 -2 -3 7 2 11 14 11
12 0 21 4 21 8 0 9 -46 11 -60 2z"/>
<path d="M2378 2422 c-20 -8 -12 -25 17 -36 16 -6 17 -9 5 -16 -9 -5 -19 -5
-27 2 -10 8 -13 6 -13 -5 0 -8 -6 -18 -12 -20 -10 -4 -9 -8 2 -16 8 -6 20 -11
25 -11 6 0 4 4 -4 9 -7 5 -10 14 -6 21 5 8 12 7 25 -5 15 -14 17 -21 7 -36 -8
-13 -15 -15 -24 -7 -16 13 -16 8 -3 -28 l11 -27 -26 17 c-14 9 -25 12 -25 7 0
-6 8 -14 18 -20 14 -8 15 -13 4 -31 -7 -11 -10 -25 -6 -31 3 -6 -2 -9 -11 -7
-12 2 -19 -4 -20 -19 -1 -19 1 -21 14 -10 9 6 19 16 23 22 11 16 16 2 11 -31
-4 -26 -9 -31 -26 -28 -22 4 -22 4 0 -7 26 -14 52 1 51 29 0 9 1 23 3 31 2 8
-6 17 -19 20 l-24 6 24 25 c13 15 22 35 20 47 -2 13 4 27 15 33 15 10 17 21
13 68 -5 57 -12 66 -42 54z"/>
<path d="M1430 2395 c-11 -13 -10 -14 4 -9 9 3 16 10 16 15 0 13 -6 11 -20 -6z"/>
<path d="M2661 2394 c0 -11 3 -14 6 -6 3 7 2 16 -1 19 -3 4 -6 -2 -5 -13z"/>
<path d="M1950 2389 c0 -5 5 -7 10 -4 6 3 10 8 10 11 0 2 -4 4 -10 4 -5 0 -10
-5 -10 -11z"/>
<path d="M2454 2386 c18 -15 18 -16 2 -16 -10 0 -14 -5 -10 -11 4 -8 9 -8 17
0 7 7 15 7 26 -2 14 -11 14 -10 2 6 -8 10 -24 23 -35 28 -20 10 -21 10 -2 -5z"/>
<path d="M1723 2370 c-30 -12 -29 -15 11 -17 19 -2 39 3 45 10 8 10 7 14 -4
14 -8 0 -15 -4 -15 -9 0 -4 -5 -8 -11 -8 -5 0 -7 5 -4 10 7 12 7 12 -22 0z"/>
<path d="M1670 2361 c0 -5 -10 -12 -22 -14 -16 -3 -13 -4 8 -4 18 1 31 6 31
14 0 7 -4 13 -9 13 -4 0 -8 -4 -8 -9z"/>
<path d="M2186 2348 c3 -5 10 -6 15 -3 13 9 11 12 -6 12 -8 0 -12 -4 -9 -9z"/>
<path d="M1597 2339 c7 -7 15 -10 18 -7 3 3 -2 9 -12 12 -14 6 -15 5 -6 -5z"/>
<path d="M1923 2333 c-7 -3 -13 -12 -12 -21 0 -10 3 -12 5 -5 3 7 12 9 20 6 8
-3 14 0 14 5 0 14 -12 20 -27 15z"/>
<path d="M1390 2318 c0 -4 3 -7 8 -7 18 3 33 -2 28 -9 -2 -4 0 -14 6 -22 8
-12 9 -12 4 3 -3 9 -2 17 3 17 4 0 8 6 8 14 0 9 -10 14 -29 14 -15 -1 -28 -5
-28 -10z"/>
<path d="M1797 2317 c-1 -5 -21 -13 -42 -18 l-40 -8 40 3 c22 1 49 7 59 11 15
6 17 5 11 -5 -5 -9 -4 -11 3 -6 7 4 12 13 12 19 0 15 -38 17 -43 4z"/>
<path d="M1965 2320 c-4 -6 6 -10 22 -10 22 0 25 2 13 10 -19 12 -27 12 -35 0z"/>
<path d="M2020 2320 c0 -12 28 -21 35 -11 2 5 -4 11 -15 14 -11 3 -20 2 -20
-3z"/>
<path d="M2170 2319 c0 -5 5 -7 10 -4 6 3 10 8 10 11 0 2 -4 4 -10 4 -5 0 -10
-5 -10 -11z"/>
<path d="M1460 2304 c0 -8 5 -12 10 -9 6 3 10 10 10 16 0 5 -4 9 -10 9 -5 0
-10 -7 -10 -16z"/>
<path d="M1857 2309 c7 -7 15 -10 18 -7 3 3 -2 9 -12 12 -14 6 -15 5 -6 -5z"/>
<path d="M2335 2310 c3 -5 8 -10 11 -10 2 0 4 5 4 10 0 6 -5 10 -11 10 -5 0
-7 -4 -4 -10z"/>
<path d="M2205 2301 c-3 -5 -2 -12 3 -15 5 -3 9 1 9 9 0 17 -3 19 -12 6z"/>
<path d="M1510 2286 c0 -8 5 -18 12 -22 7 -4 8 -3 4 4 -4 7 -1 12 8 12 8 0 18
-4 21 -10 3 -5 1 -10 -6 -10 -7 0 -9 -3 -6 -6 4 -4 13 -2 21 5 10 9 30 9 77 1
76 -12 136 -13 143 -2 2 4 -12 6 -32 5 -49 -2 -132 8 -128 16 2 3 -15 7 -37 9
-23 1 -50 5 -59 8 -12 3 -18 0 -18 -10z"/>
<path d="M2688 2289 c-10 -5 -18 -15 -18 -22 0 -7 4 -6 10 3 8 13 10 13 10 -2
0 -9 3 -19 8 -21 4 -3 7 8 7 24 0 16 0 29 0 29 0 0 -8 -5 -17 -11z"/>
<path d="M1648 2283 c6 -2 18 -2 25 0 6 3 1 5 -13 5 -14 0 -19 -2 -12 -5z"/>
<path d="M2146 2277 c3 -10 9 -15 12 -12 3 3 0 11 -7 18 -10 9 -11 8 -5 -6z"/>
<path d="M2456 2278 c3 -5 10 -6 15 -3 13 9 11 12 -6 12 -8 0 -12 -4 -9 -9z"/>
<path d="M1855 2270 c-11 -4 -24 -5 -29 -2 -5 3 -6 0 -2 -6 4 -7 15 -8 29 -3
12 4 28 6 35 4 6 -3 12 -3 12 0 0 10 -26 14 -45 7z"/>
<path d="M1915 2270 c-3 -6 1 -7 9 -4 18 7 21 14 7 14 -6 0 -13 -4 -16 -10z"/>
<path d="M2255 2259 c-4 -6 -4 -13 -1 -16 3 -4 6 -1 6 6 0 7 5 9 12 5 7 -4 8
-3 4 4 -9 15 -13 15 -21 1z"/>
<path d="M1337 2211 c15 -28 29 -49 31 -47 5 6 -43 95 -51 96 -5 0 4 -22 20
-49z"/>
<path d="M1405 2250 c-4 -6 -11 -7 -17 -4 -7 4 -8 2 -4 -4 7 -12 36 -5 36 9 0
12 -7 11 -15 -1z"/>
<path d="M2203 2238 c0 -7 -4 -22 -9 -33 -7 -17 -6 -18 7 -5 16 14 23 50 10
50 -4 0 -8 -6 -8 -12z"/>
<path d="M1598 2233 c7 -3 16 -2 19 1 4 3 -2 6 -13 5 -11 0 -14 -3 -6 -6z"/>
<path d="M1890 2231 c0 -6 4 -13 10 -16 6 -3 7 1 4 9 -7 18 -14 21 -14 7z"/>
<path d="M2386 2217 c3 -10 9 -15 12 -12 3 3 0 11 -7 18 -10 9 -11 8 -5 -6z"/>
<path d="M1508 2213 c7 -3 16 -2 19 1 4 3 -2 6 -13 5 -11 0 -14 -3 -6 -6z"/>
<path d="M1400 2193 c0 -6 5 -15 10 -18 6 -3 10 0 10 9 0 8 6 16 13 19 6 3 2
4 -10 4 -13 -1 -23 -7 -23 -14z"/>
<path d="M2420 2196 c0 -8 -2 -20 -3 -28 -2 -7 -2 -10 0 -5 3 4 11 7 19 7 16
0 16 2 8 24 -8 20 -24 21 -24 2z"/>
<path d="M2680 2199 c0 -5 5 -7 10 -4 6 3 10 8 10 11 0 2 -4 4 -10 4 -5 0 -10
-5 -10 -11z"/>
<path d="M1730 2180 c0 -5 5 -10 11 -10 5 0 7 5 4 10 -3 6 -8 10 -11 10 -2 0
-4 -4 -4 -10z"/>
<path d="M2462 2169 c-19 -30 -8 -34 12 -4 9 14 13 25 9 25 -5 0 -14 -9 -21
-21z"/>
<path d="M1208 2173 c7 -3 16 -2 19 1 4 3 -2 6 -13 5 -11 0 -14 -3 -6 -6z"/>
<path d="M2185 2169 c-4 -6 -5 -12 -2 -15 2 -3 7 2 10 11 7 17 1 20 -8 4z"/>
<path d="M1245 2150 c-3 -5 -1 -10 4 -10 6 0 11 5 11 10 0 6 -2 10 -4 10 -3 0
-8 -4 -11 -10z"/>
<path d="M2806 2143 c-6 -14 -5 -15 5 -6 7 7 10 15 7 18 -3 3 -9 -2 -12 -12z"/>
<path d="M2005 2140 c-3 -5 -15 -10 -26 -10 -11 0 -18 -4 -15 -9 7 -10 -15
-20 -139 -60 -49 -16 -85 -30 -79 -30 21 -2 185 49 223 68 39 21 71 51 53 51
-6 0 -14 -4 -17 -10z"/>
<path d="M2207 2139 c7 -7 15 -10 18 -7 3 3 -2 9 -12 12 -14 6 -15 5 -6 -5z"/>
<path d="M2670 2150 c-1 -3 -3 -18 -5 -35 -3 -24 -2 -27 6 -12 6 10 8 25 6 35
-3 9 -6 15 -7 12z"/>
<path d="M2398 2118 c-4 -10 -4 -18 0 -18 5 0 8 -20 8 -45 1 -24 -2 -42 -6
-40 -4 2 -12 -7 -18 -20 -13 -29 -10 -31 12 -9 15 14 16 14 16 -5 0 -31 -1
-36 -9 -34 -11 3 -11 -36 0 -43 5 -3 9 -2 8 3 -3 12 12 43 20 43 12 0 9 -34
-4 -47 -7 -6 -11 -24 -8 -40 3 -28 3 -28 -14 5 -9 17 -20 32 -24 32 -5 0 0
-13 9 -29 20 -36 10 -51 -18 -26 -12 11 -20 13 -20 6 0 -20 24 -38 44 -33 15
4 18 1 13 -11 -4 -10 -1 -17 6 -17 8 0 7 -4 -3 -10 -12 -8 -12 -12 -2 -18 10
-7 9 -12 -4 -23 -10 -8 -15 -9 -12 -4 4 6 3 17 -3 25 -7 13 -9 12 -9 -2 0 -10
-5 -18 -11 -18 -6 0 -8 9 -4 23 5 19 5 20 -5 4 -9 -14 -9 -22 0 -33 10 -11 10
-17 0 -29 -27 -33 -1 -24 40 13 35 31 41 42 33 56 -6 11 -7 35 -2 59 4 22 5
47 2 54 -3 7 0 13 6 13 15 0 9 43 -8 63 -9 11 -10 34 -6 83 5 45 4 65 -3 60
-6 -3 -12 2 -14 11 -3 17 -4 17 -10 1z"/>
<path d="M2504 2119 c-3 -6 -2 -15 3 -20 5 -5 9 -1 10 11 2 22 -2 25 -13 9z"/>
<path d="M2627 2113 c3 -7 6 -13 8 -13 2 0 5 6 8 13 3 8 -1 14 -8 14 -7 0 -11
-6 -8 -14z"/>
<path d="M1416 2105 c-6 -16 30 -65 48 -65 5 0 -2 12 -16 28 -14 15 -23 33
-21 40 3 6 3 12 0 12 -3 0 -7 -7 -11 -15z"/>
<path d="M1500 2109 c0 -5 5 -7 10 -4 6 3 10 8 10 11 0 2 -4 4 -10 4 -5 0 -10
-5 -10 -11z"/>
<path d="M2100 2106 c0 -2 9 -6 20 -9 11 -3 18 -1 14 4 -5 9 -34 13 -34 5z"/>
<path d="M2930 2100 c0 -5 5 -10 11 -10 5 0 7 5 4 10 -3 6 -8 10 -11 10 -2 0
-4 -4 -4 -10z"/>
<path d="M2260 2091 c0 -6 4 -13 10 -16 6 -3 7 1 4 9 -7 18 -14 21 -14 7z"/>
<path d="M2600 2097 c0 -2 6 -10 14 -16 11 -9 16 -9 22 1 4 7 4 10 -1 6 -4 -4
-14 -3 -22 3 -7 6 -13 9 -13 6z"/>
<path d="M2345 2059 c2 -27 23 -64 32 -55 2 2 -3 21 -11 41 -13 30 -13 35 -2
26 10 -9 15 -8 19 2 4 10 -2 15 -18 15 -19 0 -22 -5 -20 -29z"/>
<path d="M2115 2069 c-4 -6 -5 -12 -2 -15 2 -3 7 2 10 11 7 17 1 20 -8 4z"/>
<path d="M2293 2055 c-7 -8 -9 -16 -5 -19 4 -3 13 4 20 15 14 22 3 25 -15 4z"/>
<path d="M2596 2053 c-6 -14 -5 -15 5 -6 7 7 10 15 7 18 -3 3 -9 -2 -12 -12z"/>
<path d="M1180 2030 c0 -5 5 -10 10 -10 6 0 10 5 10 10 0 6 -4 10 -10 10 -5 0
-10 -4 -10 -10z"/>
<path d="M2210 2029 c0 -5 5 -7 10 -4 6 3 10 8 10 11 0 2 -4 4 -10 4 -5 0 -10
-5 -10 -11z"/>
<path d="M2497 2024 c6 -17 5 -17 -10 -5 -9 7 -17 10 -17 5 1 -15 27 -44 40
-44 10 0 10 3 1 14 -9 11 -9 15 0 18 7 2 6 8 -5 17 -14 12 -16 11 -9 -5z"/>
<path d="M2584 2015 c-4 -8 -10 -12 -15 -9 -5 3 -9 0 -9 -6 0 -6 8 -10 17 -8
9 2 15 7 14 13 -1 5 6 12 16 16 17 7 17 8 0 8 -10 1 -20 -6 -23 -14z"/>
<path d="M1366 2012 c-2 -4 20 -25 49 -47 48 -36 97 -95 79 -95 -3 0 -2 -6 3
-12 13 -17 -15 -68 -43 -78 -13 -5 -37 -1 -67 12 -56 24 -85 19 -130 -23 -23
-22 -26 -29 -12 -24 11 4 26 8 33 9 7 1 12 6 11 11 -4 30 113 21 137 -10 10
-13 18 -9 55 24 25 22 44 47 44 60 0 11 5 20 10 18 6 -1 9 -5 8 -9 -2 -5 2 -8
8 -8 5 0 7 -5 3 -12 -4 -7 -3 -8 4 -4 18 11 14 27 -10 47 -23 21 -33 24 -23
10 3 -5 1 -12 -5 -16 -6 -4 -10 5 -10 22 0 17 -10 38 -26 52 -35 34 -112 82
-118 73z"/>
<path d="M2260 2010 c-9 -6 -10 -10 -3 -10 6 0 15 5 18 10 8 12 4 12 -15 0z"/>
<path d="M2300 1991 c0 -5 10 -11 23 -15 38 -10 43 -7 13 9 -33 17 -36 18 -36
6z"/>
<path d="M1857 1974 c3 -8 -1 -14 -8 -15 -8 -1 -3 -4 11 -8 29 -9 52 -3 44 10
-3 5 -10 7 -15 4 -5 -4 -9 -2 -9 3 0 6 -7 12 -14 15 -10 4 -13 1 -9 -9z"/>
<path d="M2260 1980 c-13 -9 -13 -10 0 -10 13 0 13 -2 1 -9 -13 -8 -13 -12 0
-27 13 -16 12 -17 -8 -12 -15 4 -23 2 -23 -6 0 -17 38 -51 47 -43 3 4 1 7 -6
7 -7 0 -9 5 -5 12 4 6 3 8 -4 4 -6 -3 -13 -2 -16 3 -4 5 7 12 23 16 28 6 29 7
16 32 -8 15 -12 30 -9 35 7 10 3 10 -16 -2z"/>
<path d="M1926 1966 c10 -8 21 -12 24 -10 5 6 -21 24 -34 24 -6 0 -1 -6 10
-14z"/>
<path d="M2003 1965 c-15 -16 -16 -25 -5 -25 4 0 13 9 20 20 14 23 3 26 -15 5z"/>
<path d="M1706 1962 c-3 -3 -20 -5 -37 -4 -17 0 -28 -2 -24 -6 4 -4 42 -7 85
-7 44 0 76 3 72 6 -10 9 -89 18 -96 11z"/>
<path d="M976 1935 c-9 -14 -23 -25 -31 -25 -8 0 -15 -5 -15 -11 0 -7 -11 -9
-30 -5 -16 3 -30 2 -30 -2 0 -4 -26 -8 -58 -8 -31 -1 -68 -4 -82 -7 -14 -3
-36 -6 -50 -6 -19 -1 -22 -3 -10 -10 8 -6 17 -8 20 -6 3 1 54 6 115 10 60 3
113 9 117 11 17 11 28 -7 18 -27 -6 -11 -14 -17 -19 -15 -4 3 -7 -18 -6 -46 1
-40 6 -54 25 -68 13 -10 30 -15 38 -12 11 4 9 8 -9 14 -51 19 -52 61 -2 157
36 70 42 106 9 56z"/>
<path d="M1540 1950 c0 -5 7 -10 16 -10 8 0 12 5 9 10 -3 6 -10 10 -16 10 -5
0 -9 -4 -9 -10z"/>
<path d="M1590 1950 c0 -5 5 -10 10 -10 6 0 10 5 10 10 0 6 -4 10 -10 10 -5 0
-10 -4 -10 -10z"/>
<path d="M2320 1950 c-11 -7 -12 -12 -3 -21 8 -8 14 -6 22 10 12 22 5 27 -19
11z"/>
<path d="M2512 1938 c7 -15 15 -23 17 -17 2 6 -4 18 -13 27 -15 15 -15 15 -4
-10z"/>
<path d="M2565 1949 c-4 -6 -5 -12 -2 -15 2 -3 7 2 10 11 7 17 1 20 -8 4z"/>
<path d="M1317 1943 c-10 -9 -9 -23 1 -23 5 0 9 7 9 15 0 17 -1 18 -10 8z"/>
<path d="M1153 1925 c-3 -9 -3 -18 -1 -21 3 -3 8 4 11 16 6 23 -1 27 -10 5z"/>
<path d="M2357 1933 c-10 -9 -9 -23 2 -23 5 0 11 7 15 15 5 15 -5 20 -17 8z"/>
<path d="M2070 1920 c0 -5 5 -10 10 -10 6 0 10 5 10 10 0 6 -4 10 -10 10 -5 0
-10 -4 -10 -10z"/>
<path d="M2100 1916 c0 -2 7 -7 16 -10 8 -3 12 -2 9 4 -6 10 -25 14 -25 6z"/>
<path d="M2170 1916 c0 -2 7 -7 16 -10 8 -3 12 -2 9 4 -6 10 -25 14 -25 6z"/>
<path d="M2601 1906 c-7 -8 -8 -17 -3 -20 6 -3 12 3 15 14 6 24 4 25 -12 6z"/>
<path d="M2325 1880 c-3 -5 -1 -10 4 -10 6 0 11 5 11 10 0 6 -2 10 -4 10 -3 0
-8 -4 -11 -10z"/>
<path d="M2562 1873 c-7 -12 -24 -17 -60 -17 -28 -1 -48 -4 -44 -8 8 -8 37
-12 67 -9 27 2 71 36 57 45 -6 3 -15 -1 -20 -11z"/>
<path d="M1368 1873 c7 -3 16 -2 19 1 4 3 -2 6 -13 5 -11 0 -14 -3 -6 -6z"/>
<path d="M2065 1866 c18 -13 55 -6 55 10 0 2 -9 0 -20 -6 -14 -7 -20 -7 -20 0
0 5 -8 10 -17 10 -15 0 -14 -2 2 -14z"/>
<path d="M2290 1870 c0 -8 5 -22 10 -30 9 -13 10 -13 10 0 0 8 -5 22 -10 30
-9 13 -10 13 -10 0z"/>
<path d="M1285 1860 c-3 -5 -1 -10 4 -10 6 0 11 5 11 10 0 6 -2 10 -4 10 -3 0
-8 -4 -11 -10z"/>
<path d="M2210 1847 c0 -5 14 -6 31 -2 24 6 30 4 24 -5 -5 -9 -4 -11 4 -6 6 4
9 11 6 16 -7 11 -65 8 -65 -3z"/>
<path d="M1581 1838 c-1 -10 4 -18 9 -18 6 0 10 -7 10 -15 0 -8 4 -15 9 -15 6
0 32 -22 58 -49 26 -26 58 -53 70 -60 12 -6 0 12 -27 40 -28 29 -50 56 -50 61
0 4 -7 8 -15 8 -8 0 -13 6 -11 13 1 6 1 9 -1 5 -9 -16 -23 -7 -23 13 0 11 -4
18 -9 15 -5 -4 -12 0 -14 6 -3 8 -6 6 -6 -4z"/>
<path d="M2166 1841 c-4 -5 3 -7 14 -4 23 6 26 13 6 13 -8 0 -17 -4 -20 -9z"/>
<path d="M2188 1823 c7 -3 16 -2 19 1 4 3 -2 6 -13 5 -11 0 -14 -3 -6 -6z"/>
<path d="M595 1810 c-3 -5 -1 -10 4 -10 6 0 11 5 11 10 0 6 -2 10 -4 10 -3 0
-8 -4 -11 -10z"/>
<path d="M740 1810 c0 -5 5 -10 11 -10 5 0 7 5 4 10 -3 6 -8 10 -11 10 -2 0
-4 -4 -4 -10z"/>
<path d="M1942 1804 c-14 -16 -5 -18 17 -5 7 5 9 11 5 14 -5 3 -15 -1 -22 -9z"/>
<path d="M1228 1803 c7 -3 16 -2 19 1 4 3 -2 6 -13 5 -11 0 -14 -3 -6 -6z"/>
<path d="M2250 1800 c13 -8 12 -10 -4 -10 -11 0 -16 -5 -13 -14 3 -7 0 -19 -6
-25 -6 -6 -7 -11 -1 -11 13 0 45 55 37 64 -3 3 -11 6 -17 6 -6 0 -4 -5 4 -10z"/>
<path d="M2307 1796 c-4 -10 -1 -16 8 -16 19 0 19 -8 -1 -27 -13 -13 -20 -14
-35 -5 -10 7 -19 8 -19 4 0 -5 10 -14 23 -19 19 -9 26 -7 40 10 20 25 21 28 4
51 -12 17 -14 17 -20 2z"/>
<path d="M2460 1796 c6 -6 18 -5 32 1 21 10 21 10 -9 9 -19 -1 -28 -5 -23 -10z"/>
<path d="M2108 1778 c4 -18 2 -20 -14 -14 -14 5 -16 4 -8 -4 13 -13 44 -3 44
15 0 7 -6 15 -14 18 -10 4 -12 0 -8 -15z"/>
<path d="M1555 1780 c-3 -6 1 -7 9 -4 18 7 21 14 7 14 -6 0 -13 -4 -16 -10z"/>
<path d="M1840 1779 c0 -5 9 -9 20 -9 11 0 20 2 20 4 0 2 -9 6 -20 9 -11 3
-20 1 -20 -4z"/>
<path d="M1910 1775 c7 -8 17 -15 22 -15 5 0 3 7 -6 15 -8 8 -18 15 -22 15 -3
0 -1 -7 6 -15z"/>
<path d="M2038 1778 c8 -10 9 -19 3 -22 -5 -3 -11 0 -14 6 -2 7 -8 10 -12 5
-13 -11 10 -28 28 -21 22 8 21 18 0 35 -16 13 -17 12 -5 -3z"/>
<path d="M1007 1773 c-10 -22 1 -38 28 -41 16 -2 37 -13 47 -25 18 -20 19 -20
36 -2 9 10 11 15 4 11 -12 -7 -82 37 -90 56 -5 10 -20 10 -25 1z"/>
<path d="M1950 1766 c0 -8 5 -18 11 -21 6 -4 8 -14 4 -22 -4 -13 -3 -14 10 -3
21 17 20 41 -2 33 -10 -4 -14 -2 -9 5 3 6 2 13 -4 17 -5 3 -10 -1 -10 -9z"/>
<path d="M1566 1755 c-3 -8 -1 -17 3 -20 5 -3 11 2 15 10 3 8 1 17 -3 20 -5 3
-11 -2 -15 -10z"/>
<path d="M887 1746 c-4 -10 -1 -13 9 -9 7 3 14 9 14 14 0 14 -17 10 -23 -5z"/>
<path d="M1775 1749 c-4 -6 -4 -13 -1 -16 3 -4 6 -1 6 5 0 6 7 9 15 6 8 -4 15
-1 15 5 0 14 -27 14 -35 0z"/>
<path d="M2150 1756 c0 -10 28 -13 41 -5 10 6 7 9 -13 9 -16 0 -28 -2 -28 -4z"/>
<path d="M700 1729 c0 -5 5 -7 10 -4 6 3 10 8 10 11 0 2 -4 4 -10 4 -5 0 -10
-5 -10 -11z"/>
<path d="M1603 1714 c0 -16 2 -21 7 -14 4 7 13 9 20 5 8 -5 7 0 -2 14 -17 28
-25 26 -25 -5z"/>
<path d="M2125 1730 c3 -5 8 -10 11 -10 2 0 4 5 4 10 0 6 -5 10 -11 10 -5 0
-7 -4 -4 -10z"/>
<path d="M1343 1723 c-13 -2 -23 -9 -23 -14 0 -15 47 -10 54 6 3 8 2 14 -2 14
-4 -1 -17 -4 -29 -6z"/>
<path d="M1415 1720 c3 -5 8 -10 11 -10 2 0 4 5 4 10 0 6 -5 10 -11 10 -5 0
-7 -4 -4 -10z"/>
<path d="M1445 1720 c3 -5 8 -10 11 -10 2 0 4 5 4 10 0 6 -5 10 -11 10 -5 0
-7 -4 -4 -10z"/>
<path d="M2000 1720 c0 -5 5 -10 10 -10 6 0 10 5 10 10 0 6 -4 10 -10 10 -5 0
-10 -4 -10 -10z"/>
<path d="M2190 1722 c0 -14 29 -36 37 -28 3 3 1 6 -5 6 -7 0 -11 5 -9 11 1 6
-4 14 -10 16 -7 3 -13 0 -13 -5z"/>
<path d="M2246 1713 c-6 -14 -5 -15 5 -6 7 7 10 15 7 18 -3 3 -9 -2 -12 -12z"/>
<path d="M2323 1715 c-3 -9 -3 -19 1 -22 8 -9 37 18 30 28 -8 14 -24 11 -31
-6z"/>
<path d="M2403 1703 c-28 -27 -33 -35 -33 -50 0 -5 -4 -2 -9 6 -12 19 -38 22
-38 5 0 -8 4 -14 9 -14 5 0 8 -10 6 -22 -2 -13 -7 -22 -11 -20 -9 3 -36 -27
-37 -40 0 -16 19 -7 23 10 4 15 5 15 6 0 0 -9 -4 -20 -9 -23 -7 -4 -6 -13 1
-26 7 -14 16 -18 31 -13 15 4 18 3 12 -7 -11 -19 -54 -241 -48 -251 3 -4 1 -8
-3 -8 -5 0 -10 -8 -11 -17 -3 -31 -7 -48 -14 -59 -4 -6 -9 -23 -12 -39 -3 -16
-10 -31 -16 -35 -6 -4 -10 -11 -9 -16 3 -20 -1 -35 -10 -30 -5 4 -7 -2 -5 -11
3 -10 -4 -36 -16 -58 -11 -21 -20 -45 -20 -51 0 -7 -7 -15 -16 -18 -12 -4 -15
-2 -10 9 8 22 -1 18 -14 -5 -6 -11 -7 -19 -3 -18 4 2 8 -1 8 -7 0 -5 -4 -9 -8
-7 -5 1 -6 -2 -2 -8 3 -5 1 -10 -5 -10 -6 0 -9 -4 -6 -9 3 -5 -2 -15 -11 -22
-10 -8 -14 -9 -10 -2 4 6 3 14 -3 18 -6 3 -10 -4 -10 -17 0 -14 -15 -39 -34
-58 -19 -19 -32 -38 -30 -42 3 -4 -3 -5 -12 -1 -12 4 -15 3 -10 -5 4 -7 2 -12
-4 -12 -6 0 -9 -4 -6 -9 4 -5 -7 -20 -22 -33 -16 -13 -27 -28 -25 -34 2 -6 -3
-17 -12 -24 -8 -7 -15 -18 -15 -26 0 -16 -55 -56 -65 -46 -5 4 -5 1 -1 -6 4
-6 3 -12 -3 -12 -6 0 -34 -14 -63 -31 -60 -36 -58 -35 -70 -17 -6 9 -8 8 -6
-7 2 -14 -6 -22 -30 -30 -18 -6 -30 -14 -27 -17 3 -3 -2 -8 -11 -12 -12 -5
-15 -2 -10 9 3 9 2 13 -4 10 -6 -3 -10 -12 -10 -18 -1 -11 -78 -71 -90 -70 -3
0 -18 -10 -33 -23 -16 -13 -33 -22 -38 -19 -5 4 -6 -1 -3 -9 6 -14 -5 -21 -29
-17 -4 0 -6 -2 -5 -6 1 -5 -14 -25 -34 -45 -28 -29 -38 -34 -49 -25 -8 7 -10
8 -6 3 4 -5 2 -15 -4 -23 -10 -11 -15 -11 -28 -1 -14 11 -14 11 -4 -3 10 -12
9 -18 -5 -30 -9 -9 -27 -28 -39 -44 l-22 -28 -10 34 c-9 34 -9 33 -9 -14 l1
-48 31 30 c97 94 160 149 268 236 9 7 56 37 105 66 48 28 99 59 112 67 14 8
60 34 103 56 67 36 84 51 130 114 83 115 99 135 165 210 97 111 214 379 228
525 4 34 8 64 10 67 2 3 5 38 7 78 2 53 6 71 15 68 7 -3 15 -1 18 4 4 6 1 10
-5 10 -8 0 -9 10 -5 29 3 16 7 43 7 60 1 17 5 28 10 25 9 -6 24 24 15 32 -3 3
-18 -7 -34 -23z m-9 -58 c-4 -8 -10 -15 -14 -15 -5 0 -7 -11 -5 -25 1 -14 -1
-25 -5 -25 -5 0 -13 -13 -19 -30 -5 -16 -15 -30 -20 -30 -18 0 -13 35 8 59 10
12 17 30 14 40 -4 14 15 31 44 40 1 1 0 -6 -3 -14z"/>
<path d="M2925 1720 c-3 -5 -1 -10 4 -10 6 0 11 5 11 10 0 6 -2 10 -4 10 -3 0
-8 -4 -11 -10z"/>
<path d="M1000 1710 c0 -6 7 -10 15 -10 8 0 15 2 15 4 0 2 -7 6 -15 10 -8 3
-15 1 -15 -4z"/>
<path d="M1218 1713 c6 -2 18 -2 25 0 6 3 1 5 -13 5 -14 0 -19 -2 -12 -5z"/>
<path d="M620 1699 c0 -5 5 -7 10 -4 6 3 10 8 10 11 0 2 -4 4 -10 4 -5 0 -10
-5 -10 -11z"/>
<path d="M1154 1695 c23 -17 56 -20 56 -4 0 5 -4 7 -10 4 -5 -3 -10 -1 -10 4
0 6 -12 11 -27 11 -27 -1 -27 -1 -9 -15z"/>
<path d="M1275 1699 c7 -11 35 -12 35 -1 0 4 -9 8 -20 9 -11 1 -18 -2 -15 -8z"/>
<path d="M1500 1673 c0 -24 3 -33 8 -25 5 8 16 10 28 6 17 -7 17 -6 -2 12 -11
10 -19 25 -17 32 3 6 0 12 -6 12 -6 0 -11 -17 -11 -37z"/>
<path d="M1540 1700 c0 -5 5 -10 11 -10 5 0 7 5 4 10 -3 6 -8 10 -11 10 -2 0
-4 -4 -4 -10z"/>
<path d="M694 1689 c-3 -6 -1 -22 7 -35 14 -26 32 -33 23 -9 -4 8 -11 15 -16
15 -6 0 -8 9 -5 20 6 22 2 26 -9 9z"/>
<path d="M1422 1678 c4 -33 40 -31 44 2 3 23 3 23 -10 8 -16 -22 -30 -23 -22
-3 3 8 1 15 -5 15 -6 0 -9 -10 -7 -22z"/>
<path d="M1794 1684 c9 -8 16 -19 16 -24 0 -4 6 -10 13 -13 7 -3 13 3 13 13 0
10 -3 17 -7 14 -4 -2 -12 3 -19 11 -7 8 -17 15 -22 15 -5 0 -2 -7 6 -16z"/>
<path d="M2016 1691 c-3 -4 -17 -6 -31 -3 -15 2 -25 0 -25 -7 0 -6 8 -11 18
-11 28 0 62 12 62 21 0 12 -17 12 -24 0z"/>
<path d="M2080 1685 c0 -8 5 -15 10 -15 6 0 10 7 10 15 0 8 -4 15 -10 15 -5 0
-10 -7 -10 -15z"/>
<path d="M1031 1683 c-1 -7 -9 -13 -18 -13 -15 0 -16 -2 -3 -10 13 -9 13 -11
0 -20 -11 -7 -11 -10 -2 -10 7 0 10 -4 7 -10 -3 -5 -1 -10 5 -10 7 0 9 7 6 16
-4 10 -2 13 6 8 7 -5 9 -2 5 9 -4 11 -2 14 7 11 8 -3 17 -1 21 5 3 6 0 11 -9
11 -8 0 -17 6 -19 13 -4 10 -6 10 -6 0z"/>
<path d="M1117 1670 c-9 -11 -14 -20 -11 -20 4 0 1 -7 -6 -15 -7 -8 -8 -15 -3
-15 8 0 19 16 41 63 6 13 -3 7 -21 -13z"/>
<path d="M1393 1665 c0 -14 3 -22 8 -19 5 3 9 11 9 19 0 8 -4 16 -9 19 -5 3
-8 -5 -8 -19z"/>
<path d="M2183 1672 c-9 -15 -12 -15 -27 -3 -9 8 -20 11 -24 7 -4 -4 1 -12 11
-17 9 -6 17 -18 17 -27 1 -15 3 -14 15 3 8 11 19 25 25 32 5 7 6 14 2 17 -4 2
-13 -3 -19 -12z"/>
<path d="M2262 1676 c7 -8 15 -12 17 -11 5 6 -10 25 -20 25 -5 0 -4 -6 3 -14z"/>
<path d="M862 1675 c4 -4 0 -22 -8 -39 l-15 -31 21 24 c23 27 25 37 8 47 -7 4
-10 4 -6 -1z"/>
<path d="M1253 1668 c-17 -23 -25 -44 -8 -23 16 20 16 20 31 1 7 -11 16 -18
18 -15 3 2 -3 15 -13 27 -14 19 -19 21 -28 10z"/>
<path d="M1290 1672 c0 -7 5 -12 10 -12 6 0 16 -11 22 -25 6 -14 16 -25 22
-25 6 0 5 5 -2 12 -14 14 -16 42 -3 34 5 -3 11 1 14 8 4 10 0 14 -13 13 -10
-1 -16 -5 -14 -9 8 -12 -11 -9 -24 4 -9 9 -12 9 -12 0z"/>
<path d="M1579 1678 c-7 -25 -7 -48 1 -53 6 -4 10 7 10 24 0 17 -2 31 -5 31
-3 0 -5 -1 -6 -2z"/>
<path d="M1915 1660 c3 -5 8 -10 11 -10 2 0 4 5 4 10 0 6 -5 10 -11 10 -5 0
-7 -4 -4 -10z"/>
<path d="M1952 1651 c14 -23 45 -34 54 -19 3 5 1 15 -5 21 -8 8 -11 8 -11 -2
0 -10 -6 -9 -25 3 -25 16 -25 16 -13 -3z"/>
<path d="M2245 1660 c3 -5 8 -10 11 -10 2 0 4 5 4 10 0 6 -5 10 -11 10 -5 0
-7 -4 -4 -10z"/>
<path d="M2475 1659 c-4 -6 -13 -8 -20 -5 -7 2 -16 -2 -19 -10 -3 -8 -3 -14
-1 -14 12 0 55 24 55 32 0 11 -8 10 -15 -3z"/>
<path d="M580 1650 c0 -5 5 -10 10 -10 6 0 10 5 10 10 0 6 -4 10 -10 10 -5 0
-10 -4 -10 -10z"/>
<path d="M950 1640 c-14 -11 -21 -20 -17 -20 5 0 20 9 34 20 14 11 22 20 17
20 -5 0 -20 -9 -34 -20z"/>
<path d="M1363 1640 c-1 -11 2 -20 5 -20 4 0 8 9 9 20 1 11 -2 20 -5 20 -4 0
-8 -9 -9 -20z"/>
<path d="M1760 1652 c0 -5 5 -13 11 -19 8 -8 7 -17 -2 -31 -12 -19 -10 -25 28
-57 30 -25 40 -40 36 -55 -3 -11 -3 -20 0 -20 14 0 13 42 -1 57 -10 9 -17 24
-17 32 -1 27 -28 90 -42 95 -7 3 -13 2 -13 -2z m32 -74 c-15 -15 -26 -4 -18
18 5 13 9 15 18 6 9 -9 9 -15 0 -24z"/>
<path d="M2070 1655 c0 -5 5 -17 10 -25 7 -11 3 -18 -13 -28 l-22 -13 22 4
c15 3 23 -1 26 -12 4 -14 5 -14 6 2 0 9 6 17 11 17 7 0 7 4 0 13 -6 6 -17 21
-25 32 -8 11 -14 16 -15 10z"/>
<path d="M1044 1625 c-9 -14 -21 -25 -28 -25 -16 -1 -48 -48 -41 -60 4 -6 10
-8 15 -5 5 3 8 -4 7 -15 -1 -22 -13 -27 -20 -7 -4 10 -6 10 -6 0 -1 -7 -8 -13
-17 -13 -8 0 -12 5 -9 10 3 6 0 10 -7 10 -10 0 -9 3 2 11 10 7 11 9 2 7 -8 -2
-13 -7 -13 -11 1 -4 -16 -22 -37 -41 -31 -29 -35 -37 -23 -48 8 -7 11 -8 8 -2
-3 6 0 20 8 31 15 22 55 37 55 22 0 -6 6 -6 17 0 11 6 24 6 35 0 12 -6 22 -4
33 8 16 16 18 16 27 0 5 -9 18 -17 28 -17 22 0 39 22 22 28 -8 2 -7 12 4 34
19 36 15 43 -12 22 -10 -8 -13 -13 -6 -9 6 3 12 2 12 -3 0 -6 -7 -12 -15 -16
-9 -3 -12 -12 -9 -23 5 -17 5 -17 -6 0 -6 9 -8 23 -4 30 4 6 -1 5 -12 -4 -36
-30 -44 -31 -44 -8 0 19 2 20 18 8 9 -7 14 -10 10 -5 -4 5 -3 17 3 27 6 13 6
19 -1 19 -5 0 -10 -4 -10 -10 0 -5 -7 -7 -16 -3 -17 6 -8 20 16 25 19 4 34 19
43 41 10 26 -10 21 -29 -8z m-44 -65 c0 -5 -5 -10 -11 -10 -5 0 -7 5 -4 10 3
6 8 10 11 10 2 0 4 -4 4 -10z"/>
<path d="M1158 1627 c-16 -24 -16 -25 2 -20 24 6 26 -9 5 -27 -8 -7 -15 -17
-15 -23 0 -5 12 3 26 19 l26 29 -4 -42 c-3 -31 0 -43 10 -43 8 0 11 7 7 19 -3
10 1 24 10 31 14 12 12 15 -15 28 -26 12 -28 17 -18 30 9 10 9 13 1 9 -6 -4
-13 -2 -15 4 -2 7 -11 0 -20 -14z"/>
<path d="M1600 1641 c0 -17 38 -51 57 -51 7 0 13 -6 13 -12 0 -9 4 -8 10 2 5
8 9 24 9 35 -1 17 -2 17 -6 3 -2 -10 -13 -18 -23 -18 -13 0 -17 5 -14 15 4 8
11 15 17 15 7 0 7 4 -1 12 -9 9 -15 8 -26 -7 -13 -18 -13 -18 -24 1 -7 12 -12
14 -12 5z"/>
<path d="M1888 1633 c21 -17 21 -20 7 -41 -9 -12 -12 -22 -7 -22 7 0 20 21 41
65 2 6 1 7 -3 3 -5 -4 -20 -2 -35 3 l-26 9 23 -17z"/>
<path d="M605 1630 c-3 -5 -3 -10 2 -10 4 0 3 -4 -3 -8 -7 -4 -8 -15 -3 -27 8
-20 8 -20 9 0 1 11 3 28 5 38 4 19 -1 22 -10 7z"/>
<path d="M969 1618 c-14 -27 -39 -53 -59 -61 -12 -4 -11 -6 2 -6 9 -1 20 4 24
10 5 8 9 8 14 -1 5 -9 10 -5 15 11 5 13 15 29 24 36 11 9 12 12 3 13 -7 0 -10
5 -7 10 3 6 4 10 1 10 -3 0 -11 -10 -17 -22z"/>
<path d="M2224 1628 c-5 -8 3 -12 20 -9 4 1 14 -4 22 -10 15 -12 19 -2 6 17
-8 13 -41 14 -48 2z"/>
<path d="M884 1601 c-16 -16 -29 -34 -29 -40 0 -6 -4 -10 -10 -9 -5 1 -8 9 -6
18 2 11 -2 11 -18 -4 -25 -22 -27 -30 -6 -22 8 3 15 1 15 -4 0 -6 -6 -11 -12
-11 -7 -1 -19 -2 -27 -3 -8 0 -17 -8 -19 -16 -5 -13 -3 -13 14 0 18 15 18 14
1 -13 -10 -15 -15 -32 -12 -37 3 -5 1 -11 -5 -15 -6 -4 -8 -11 -4 -16 3 -6 0
-9 -8 -7 -7 2 -15 -1 -17 -7 -1 -5 -7 -16 -13 -22 -15 -19 4 -15 28 5 32 26
59 82 32 66 -8 -4 -10 -3 -5 2 9 9 14 11 47 13 11 0 20 5 20 11 0 5 -8 9 -17
7 -21 -2 -31 15 -12 22 7 2 9 -1 5 -8 -5 -7 -1 -9 9 -4 11 4 13 8 6 13 -7 4
-2 11 14 18 21 10 25 10 18 0 -4 -7 -9 -24 -11 -38 -3 -24 -3 -24 12 -5 8 11
12 24 8 29 -3 5 2 7 11 3 18 -7 24 8 7 18 -15 9 -12 25 4 25 15 0 42 28 34 35
-3 3 -18 -6 -34 -20 -43 -37 -53 -30 -14 10 19 19 32 35 29 35 -3 0 -19 -13
-35 -29z"/>
<path d="M1120 1610 c-6 -11 -8 -20 -6 -20 3 0 10 9 16 20 6 11 8 20 6 20 -3
0 -10 -9 -16 -20z"/>
<path d="M1707 1611 c3 -12 9 -21 13 -21 12 0 5 33 -8 38 -6 2 -8 -5 -5 -17z"/>
<path d="M645 1610 c-3 -5 -1 -10 4 -10 6 0 11 5 11 10 0 6 -2 10 -4 10 -3 0
-8 -4 -11 -10z"/>
<path d="M1230 1610 c0 -6 4 -9 8 -6 4 2 13 -4 20 -15 7 -11 8 -19 2 -19 -5 0
-10 -10 -10 -22 0 -23 1 -23 14 2 7 14 9 30 5 35 -4 6 -7 15 -8 20 0 14 -31
19 -31 5z"/>
<path d="M1515 1612 c-13 -9 -17 -32 -6 -32 5 0 11 9 14 20 6 22 6 22 -8 12z"/>
<path d="M1947 1600 c-33 -18 -35 -46 -4 -53 21 -6 21 -5 3 8 -19 15 -14 35
10 35 8 0 14 5 14 11 0 8 4 8 14 0 10 -8 16 -8 25 3 10 11 7 14 -12 12 -13 0
-35 -8 -50 -16z"/>
<path d="M2196 1604 c-8 -21 -8 -24 5 -24 5 0 8 4 5 9 -4 5 -1 11 6 13 8 3 9
6 1 11 -6 4 -14 0 -17 -9z"/>
<path d="M1091 1594 c0 -11 3 -14 6 -6 3 7 2 16 -1 19 -3 4 -6 -2 -5 -13z"/>
<path d="M1460 1601 c0 -6 5 -13 10 -16 15 -9 12 -35 -4 -35 -8 0 -16 8 -18
18 -3 14 -5 13 -10 -5 -3 -12 -3 -22 1 -21 18 2 22 -4 11 -17 -11 -13 -10 -14
3 -9 8 3 18 12 21 20 3 9 10 13 15 9 6 -3 6 7 0 27 -5 18 -9 34 -9 35 0 2 -4
3 -10 3 -5 0 -10 -4 -10 -9z"/>
<path d="M2144 1589 c-3 -6 -1 -16 5 -22 8 -8 11 -6 11 7 0 10 4 14 12 10 7
-4 8 -3 4 4 -9 15 -23 15 -32 1z"/>
<path d="M673 1583 c4 -3 1 -13 -6 -21 -9 -11 -4 -11 16 2 33 22 34 26 5 26
-12 0 -18 -3 -15 -7z"/>
<path d="M1350 1580 c0 -5 -7 -7 -15 -4 -12 5 -15 -2 -14 -27 0 -19 3 -27 6
-19 4 8 12 21 20 28 13 13 18 32 8 32 -3 0 -5 -4 -5 -10z"/>
<path d="M1370 1578 c0 -4 4 -8 9 -8 6 0 12 4 15 8 3 5 -1 9 -9 9 -8 0 -15 -4
-15 -9z"/>
<path d="M1850 1575 c7 -9 15 -13 17 -11 7 7 -7 26 -19 26 -6 0 -6 -6 2 -15z"/>
<path d="M2007 1570 c-3 -13 -10 -18 -21 -14 -12 5 -15 2 -10 -10 3 -9 1 -16
-6 -16 -6 0 -8 -4 -5 -10 8 -14 42 -13 51 2 4 7 3 8 -4 4 -17 -10 -15 13 3 30
17 17 20 34 6 34 -5 0 -11 -9 -14 -20z"/>
<path d="M2247 1572 c-14 -16 -15 -23 -4 -45 6 -15 18 -27 25 -27 17 0 15 19
-3 26 -8 4 -12 10 -9 15 3 5 0 9 -7 9 -7 0 -2 9 11 20 13 11 19 20 13 20 -5 0
-17 -8 -26 -18z"/>
<path d="M1416 1565 c-9 -26 -7 -32 5 -12 6 10 9 21 6 23 -2 3 -7 -2 -11 -11z"/>
<path d="M1600 1569 c0 -5 5 -7 10 -4 6 3 10 8 10 11 0 2 -4 4 -10 4 -5 0 -10
-5 -10 -11z"/>
<path d="M610 1550 c-8 -14 -8 -20 0 -20 6 0 9 -4 5 -9 -3 -5 -1 -12 4 -15 5
-3 9 10 9 29 0 40 -3 43 -18 15z"/>
<path d="M1287 1563 c-4 -3 -7 -13 -7 -21 0 -12 3 -12 15 -2 8 7 15 16 15 21
0 11 -14 12 -23 2z"/>
<path d="M1520 1553 c0 -10 4 -14 8 -8 4 6 11 13 16 18 5 4 2 7 -7 7 -10 0
-17 -8 -17 -17z"/>
<path d="M1557 1551 c-3 -13 -1 -18 9 -14 7 2 10 11 7 19 -7 19 -10 18 -16 -5z"/>
<path d="M1712 1558 c-7 -9 -6 -17 4 -26 12 -11 14 -9 14 13 0 28 -3 30 -18
13z"/>
<path d="M1165 1540 c-3 -11 -15 -25 -26 -31 -18 -9 -18 -29 -1 -29 7 0 52 65
52 75 0 14 -19 2 -25 -15z"/>
<path d="M1374 1549 c-7 -11 13 -29 31 -28 6 0 5 3 -2 5 -7 3 -9 12 -6 20 6
16 -13 19 -23 3z"/>
<path d="M1862 1533 c7 -13 16 -23 19 -23 4 0 9 -13 11 -30 3 -16 1 -30 -4
-30 -5 0 0 -10 11 -22 18 -19 19 -23 5 -32 -10 -8 -13 -21 -10 -39 2 -15 0
-42 -5 -59 -6 -21 -5 -34 0 -36 6 -2 8 -9 5 -17 -7 -16 12 -29 21 -15 4 6 3
16 -2 23 -12 16 -15 67 -4 67 5 0 12 -6 15 -12 8 -19 -1 34 -10 56 -4 11 -2
21 7 27 11 6 11 11 1 21 -6 6 -12 27 -12 45 0 23 -9 43 -31 65 -19 21 -25 25
-17 11z"/>
<path d="M2270 1540 c0 -5 5 -10 10 -10 6 0 10 5 10 10 0 6 -4 10 -10 10 -5 0
-10 -4 -10 -10z"/>
<path d="M645 1530 c-3 -5 -1 -10 4 -10 6 0 11 5 11 10 0 6 -2 10 -4 10 -3 0
-8 -4 -11 -10z"/>
<path d="M1125 1530 c-3 -5 1 -10 10 -10 9 0 13 5 10 10 -3 6 -8 10 -10 10 -2
0 -7 -4 -10 -10z"/>
<path d="M1767 1520 c-16 -16 -16 -18 2 -34 10 -9 19 -28 19 -41 0 -26 -12
-33 -23 -15 -3 5 -16 15 -28 20 -20 10 -20 10 -5 -3 11 -8 14 -17 8 -23 -5 -5
3 -9 21 -8 47 2 53 4 46 11 -4 3 -2 12 4 20 9 10 8 13 -1 13 -7 0 -10 6 -7 14
4 9 -4 16 -21 21 -20 5 -23 8 -12 15 9 5 20 4 30 -3 13 -11 13 -10 0 8 -8 11
-14 21 -15 21 0 1 -8 -6 -18 -16z"/>
<path d="M523 1516 c-28 -6 -55 -15 -60 -20 -5 -5 5 -6 22 -1 17 4 48 11 70
14 22 4 36 9 30 12 -5 3 -33 1 -62 -5z"/>
<path d="M2106 1521 c-4 -7 -5 -15 -2 -18 9 -9 19 4 14 18 -4 11 -6 11 -12 0z"/>
<path d="M2201 1516 c-7 -8 -8 -17 -3 -20 6 -3 13 1 16 10 9 23 2 28 -13 10z"/>
<path d="M730 1509 c0 -5 5 -7 10 -4 6 3 10 8 10 11 0 2 -4 4 -10 4 -5 0 -10
-5 -10 -11z"/>
<path d="M1450 1498 c-52 -10 -111 -21 -130 -23 -19 -3 -52 -9 -73 -14 -21 -5
-100 -8 -174 -7 -105 2 -138 0 -149 -11 -8 -8 -11 -20 -7 -26 3 -7 3 -9 -1 -5
-14 12 -66 -13 -66 -32 0 -10 -7 -21 -16 -24 -11 -4 -14 -13 -11 -27 5 -17 3
-18 -9 -8 -8 7 -12 19 -9 28 5 12 3 13 -5 5 -17 -17 5 -65 26 -57 13 5 15 3 9
-7 -5 -9 -4 -11 4 -6 6 4 9 11 6 16 -2 4 11 21 31 38 19 17 35 33 35 36 -3 20
1 26 13 26 8 0 13 8 12 18 -1 15 9 17 76 17 48 0 74 -4 70 -10 -3 -5 1 -5 9 1
8 6 41 12 75 12 33 0 107 10 163 21 112 24 161 28 179 17 7 -4 12 0 13 11 0
10 3 13 5 7 3 -7 13 -10 24 -7 12 3 23 -3 32 -16 14 -23 45 -28 45 -7 0 7 -7
11 -17 9 -8 -2 -24 5 -34 16 -19 21 -9 30 10 11 7 -7 11 -6 11 5 0 19 -24 18
-147 -7z m-560 -116 c0 -5 -11 -19 -25 -32 -29 -27 -33 -19 -7 15 17 25 32 32
32 17z"/>
<path d="M2023 1505 c-9 -25 4 -29 17 -6 7 15 7 21 0 21 -6 0 -13 -7 -17 -15z"/>
<path d="M686 1495 c4 -8 8 -15 10 -15 2 0 4 7 4 15 0 8 -4 15 -10 15 -5 0 -7
-7 -4 -15z"/>
<path d="M1278 1503 c7 -3 16 -2 19 1 4 3 -2 6 -13 5 -11 0 -14 -3 -6 -6z"/>
<path d="M1920 1502 c0 -7 9 -22 20 -34 11 -12 20 -17 20 -11 0 7 9 15 21 18
11 4 18 9 16 12 -3 3 -13 0 -23 -5 -13 -7 -22 -5 -35 12 -11 12 -18 16 -19 8z"/>
<path d="M1945 1500 c3 -5 11 -10 16 -10 6 0 7 5 4 10 -3 6 -11 10 -16 10 -6
0 -7 -4 -4 -10z"/>
<path d="M2226 1495 c-9 -26 -7 -32 5 -12 6 10 9 21 6 23 -2 3 -7 -2 -11 -11z"/>
<path d="M2299 1508 c0 -2 -2 -15 -3 -30 -1 -14 -14 -39 -29 -54 -31 -31 -35
-25 -10 17 22 38 5 57 -20 23 -17 -23 -17 -23 0 -17 16 6 16 5 5 -10 -8 -9
-11 -24 -8 -34 4 -12 -1 -24 -14 -33 -11 -8 -20 -20 -20 -26 0 -6 -7 -17 -15
-24 -8 -7 -12 -17 -8 -23 3 -6 1 -7 -5 -3 -16 10 -15 33 1 39 9 4 9 7 -1 14
-9 7 -5 16 18 38 27 26 31 45 10 45 -5 0 -7 -7 -4 -15 10 -25 -10 -16 -23 10
-8 17 -8 25 0 25 6 0 8 3 4 6 -10 10 -28 -7 -20 -19 4 -6 8 -24 10 -40 3 -25
1 -28 -12 -17 -12 10 -15 10 -15 -4 0 -9 -4 -16 -10 -16 -5 0 -10 -5 -10 -12
0 -22 -62 -108 -74 -101 -6 3 -8 2 -3 -2 4 -5 0 -16 -8 -25 -13 -14 -12 -16 5
-17 11 -1 19 2 17 7 -1 4 2 8 7 8 5 1 18 19 29 41 12 23 28 41 36 41 11 0 10
-4 -5 -15 -19 -15 -19 -15 1 -9 17 5 18 4 5 -8 -17 -15 -60 -74 -60 -83 0 -8
-39 -45 -47 -45 -8 0 -33 -24 -102 -97 -22 -24 -47 -43 -56 -43 -9 0 -14 -4
-11 -9 8 -12 -19 -33 -29 -23 -5 4 -5 -1 -2 -10 4 -11 2 -15 -7 -12 -7 3 -28
-6 -47 -19 -38 -26 -70 -41 -81 -39 -5 1 -8 -5 -8 -14 0 -8 -4 -13 -9 -10 -5
3 -12 -1 -15 -10 -3 -9 -12 -14 -20 -11 -8 3 -23 -3 -35 -14 -12 -11 -21 -15
-21 -10 0 5 4 12 10 16 5 3 7 12 4 19 -3 7 2 19 11 26 13 10 15 9 16 -6 0 -11
3 -13 6 -7 2 7 4 15 3 19 -1 4 4 11 12 15 11 7 11 9 -1 9 -19 0 -83 -69 -75
-82 4 -6 2 -8 -4 -4 -12 7 -25 -9 -29 -36 -3 -21 1 -22 19 -5 7 6 28 20 45 30
30 17 32 17 43 0 11 -17 11 -17 6 0 -4 12 0 17 12 17 10 0 47 24 82 54 60 51
89 66 60 31 -25 -30 7 -14 41 21 24 25 41 34 56 31 12 -2 20 -1 18 3 -3 5 2
10 9 13 8 3 17 1 20 -6 4 -7 4 -2 2 10 -2 13 0 25 5 28 4 3 6 12 2 20 -3 8 0
15 6 15 7 0 16 10 21 23 5 12 9 16 9 10 1 -7 8 -13 16 -13 18 0 20 17 3 23
-10 4 -10 7 0 18 10 11 12 11 12 0 0 -7 23 11 50 40 28 29 50 56 50 60 0 10
70 84 80 84 5 0 15 6 22 13 11 11 10 12 -4 7 -21 -8 -24 5 -6 23 15 15 31 16
22 0 -4 -7 -3 -8 4 -4 6 4 9 13 6 21 -3 7 4 18 16 25 12 6 19 14 16 17 -3 3 1
11 10 17 18 14 36 84 23 92 -5 3 -9 4 -10 2z m-146 -184 c-8 -20 -22 -17 -20
5 0 10 7 17 13 14 7 -3 10 -11 7 -19z m-233 -329 c-7 -8 -17 -15 -22 -15 -6 0
-5 7 2 15 7 8 17 15 22 15 6 0 5 -7 -2 -15z"/>
<path d="M645 1490 c-19 -8 -19 -9 3 -9 12 -1 22 4 22 9 0 6 -1 10 -2 9 -2 0
-12 -4 -23 -9z"/>
<path d="M2076 1485 c4 -8 10 -12 15 -9 11 6 2 24 -11 24 -5 0 -7 -7 -4 -15z"/>
<path d="M1720 1480 c0 -6 7 -10 15 -10 8 0 15 2 15 4 0 2 -7 6 -15 10 -8 3
-15 1 -15 -4z"/>
<path d="M2115 1479 c-11 -16 -1 -19 13 -3 7 8 8 14 3 14 -5 0 -13 -5 -16 -11z"/>
<path d="M2197 1474 c-4 -4 -7 -14 -7 -23 0 -11 3 -12 11 -4 6 6 10 16 7 23
-2 6 -7 8 -11 4z"/>
<path d="M637 1453 c6 -16 12 -16 41 0 22 13 21 13 -12 13 -24 0 -32 -4 -29
-13z"/>
<path d="M836 1453 c-6 -15 -8 -15 -16 -3 -7 11 -10 11 -11 3 -3 -28 -2 -39 8
-62 7 -17 12 -21 17 -12 5 7 1 18 -10 25 -12 9 -14 15 -5 20 6 4 18 3 25 -3
10 -8 12 -4 8 19 -5 35 -7 36 -16 13z"/>
<path d="M1629 1450 c-15 -16 -13 -17 30 -17 25 0 37 2 26 5 -11 2 -24 10 -30
17 -8 10 -13 9 -26 -5z"/>
<path d="M1424 1446 c-3 -8 -13 -12 -23 -9 -11 3 -18 -1 -18 -10 0 -12 6 -13
27 -6 15 6 27 16 27 24 0 19 -6 19 -13 1z"/>
<path d="M1455 1449 c-4 -6 -5 -12 -2 -15 2 -3 7 2 10 11 7 17 1 20 -8 4z"/>
<path d="M1825 1428 c-4 -18 -11 -38 -16 -44 -5 -7 -3 -11 6 -11 9 0 18 12 21
26 3 14 7 31 9 38 2 7 0 15 -5 18 -4 3 -12 -9 -15 -27z"/>
<path d="M1975 1450 c-3 -5 -2 -10 4 -10 5 0 13 5 16 10 3 6 2 10 -4 10 -5 0
-13 -4 -16 -10z"/>
<path d="M2007 1446 c-4 -10 -1 -13 8 -9 8 3 12 9 9 14 -7 12 -11 11 -17 -5z"/>
<path d="M2101 1443 c-1 -17 16 -25 25 -12 4 7 3 9 -4 5 -5 -3 -13 0 -15 6 -4
9 -6 10 -6 1z"/>
<path d="M694 1429 c-3 -6 -15 -9 -25 -6 -21 6 -24 -4 -10 -31 5 -9 17 -34 26
-54 21 -49 25 -48 13 2 -9 35 -8 43 8 56 18 14 18 14 -4 4 -34 -17 -37 -6 -6
19 15 11 22 21 16 21 -6 0 -14 -5 -18 -11z"/>
<path d="M1860 1430 c0 -5 5 -10 11 -10 5 0 7 5 4 10 -3 6 -8 10 -11 10 -2 0
-4 -4 -4 -10z"/>
<path d="M1941 1424 c0 -11 3 -14 6 -6 3 7 2 16 -1 19 -3 4 -6 -2 -5 -13z"/>
<path d="M1325 1420 c3 -5 8 -10 11 -10 2 0 4 5 4 10 0 6 -5 10 -11 10 -5 0
-7 -4 -4 -10z"/>
<path d="M2032 1421 c-8 -4 -13 -11 -13 -15 2 -15 0 -16 -18 -6 -24 12 -32 -4
-20 -37 9 -24 -3 -39 -23 -27 -10 5 -10 4 0 -7 10 -11 16 -9 35 10 12 13 17
21 11 17 -7 -3 -14 3 -17 14 -5 21 16 29 28 10 3 -5 12 -10 18 -10 9 0 9 2 1
8 -9 5 -8 10 1 19 11 10 15 10 18 0 3 -7 6 -2 6 11 1 23 -6 27 -27 13z"/>
<path d="M1051 1411 c-10 -6 -4 -11 18 -16 18 -4 35 -4 38 -1 6 5 -5 8 -23 5
-4 0 -10 4 -13 10 -4 6 -12 6 -20 2z"/>
<path d="M1656 1410 c5 -4 19 -11 31 -15 17 -4 21 -3 18 7 -3 7 -17 14 -31 15
-14 0 -22 -3 -18 -7z"/>
<path d="M1554 1402 c-15 -10 -37 -53 -30 -59 3 -3 10 6 15 20 6 14 18 30 28
36 10 6 14 10 8 11 -5 0 -15 -4 -21 -8z"/>
<path d="M2085 1400 c-3 -5 -1 -10 4 -10 6 0 11 5 11 10 0 6 -2 10 -4 10 -3 0
-8 -4 -11 -10z"/>
<path d="M785 1390 c-4 -6 -11 -8 -16 -4 -6 3 -17 -3 -25 -15 -9 -12 -20 -19
-25 -16 -5 4 -9 1 -9 -5 0 -7 7 -10 15 -6 19 7 19 -14 1 -39 -11 -15 -12 -24
-3 -40 6 -11 10 -29 9 -40 -2 -17 -1 -17 7 -5 9 12 11 10 12 -10 3 -51 16 -90
30 -90 6 0 7 -4 4 -10 -3 -5 -1 -10 6 -10 7 0 5 -8 -7 -22 -10 -12 -13 -18 -6
-14 16 9 16 -26 0 -42 -9 -9 -7 -12 10 -12 12 0 22 5 22 10 0 6 5 10 11 10 6
0 9 -7 5 -15 -3 -8 -1 -15 4 -15 13 0 13 -36 -1 -62 -6 -11 -8 -22 -6 -25 3
-3 15 14 25 36 11 23 15 38 10 34 -7 -4 -9 1 -6 15 3 12 1 23 -4 24 -9 3 -37
71 -38 91 0 4 10 6 23 3 24 -4 67 24 67 44 0 6 -11 -2 -25 -17 -13 -15 -25
-23 -25 -16 0 6 5 15 10 18 6 3 10 15 10 25 0 10 7 23 16 28 13 7 14 11 4 17
-7 4 -16 2 -20 -5 -4 -7 -13 -10 -19 -6 -7 5 -9 1 -5 -8 4 -11 0 -16 -10 -16
-9 0 -16 -8 -16 -19 0 -22 -16 -36 -24 -22 -4 5 -2 12 4 16 5 3 10 11 10 16 0
6 -4 7 -10 4 -5 -3 -10 -1 -10 5 0 7 7 10 15 6 9 -3 15 0 15 10 0 8 7 17 15
20 8 4 13 10 10 14 -3 5 3 13 12 19 11 6 13 11 5 11 -7 0 -10 4 -7 10 3 6 -1
7 -9 4 -9 -3 -14 -10 -11 -14 3 -5 0 -12 -6 -16 -8 -5 -9 -3 -4 6 6 10 4 12
-10 6 -14 -5 -16 -4 -7 7 7 8 9 17 5 20 -12 13 -21 7 -27 -18 -6 -23 -34 -36
-37 -17 -6 34 -5 59 2 72 6 10 8 1 9 -29 0 -62 13 -43 15 23 3 62 13 86 26 65
6 -10 9 -10 9 -2 0 16 -17 26 -25 13z m-24 -43 c-8 -8 -11 -7 -11 4 0 20 13
34 18 19 3 -7 -1 -17 -7 -23z m47 -129 c-3 -7 -13 -14 -24 -16 -15 -2 -16 -1
-5 6 11 8 10 11 -5 15 -13 3 -10 5 9 6 19 1 27 -3 25 -11z m0 -185 c-13 -12
-14 -10 -10 18 4 27 6 29 14 14 7 -12 6 -21 -4 -32z"/>
<path d="M1712 1381 c-10 -6 -8 -14 8 -32 l21 -24 -12 25 c-11 23 -11 24 4 11
10 -7 17 -9 17 -3 0 16 -25 31 -38 23z"/>
<path d="M946 1355 c-11 -8 -15 -15 -9 -15 6 0 16 7 23 15 16 19 11 19 -14 0z"/>
<path d="M1670 1360 c0 -5 5 -10 11 -10 5 0 7 5 4 10 -3 6 -8 10 -11 10 -2 0
-4 -4 -4 -10z"/>
<path d="M1850 1350 c6 -11 12 -20 13 -20 2 0 3 9 3 20 0 11 -6 20 -13 20 -11
0 -11 -5 -3 -20z"/>
<path d="M1210 1340 c0 -13 5 -18 14 -14 8 3 12 12 9 20 -8 21 -23 17 -23 -6z"/>
<path d="M1270 1344 l-25 -15 25 5 c24 5 24 5 -5 -19 -23 -19 -26 -24 -12 -25
9 0 17 5 17 12 0 6 8 4 19 -6 11 -10 22 -13 25 -8 3 5 -1 15 -8 22 -8 6 -13
20 -11 31 2 10 3 19 2 19 -1 -1 -13 -8 -27 -16z"/>
<path d="M1370 1350 c0 -5 5 -10 10 -10 6 0 10 5 10 10 0 6 -4 10 -10 10 -5 0
-10 -4 -10 -10z"/>
<path d="M1620 1340 c6 -11 15 -20 20 -20 6 0 2 9 -7 20 -10 11 -19 20 -21 20
-1 0 2 -9 8 -20z"/>
<path d="M2021 1344 c0 -11 3 -14 6 -6 3 7 2 16 -1 19 -3 4 -6 -2 -5 -13z"/>
<path d="M2056 1343 c-6 -14 -5 -15 5 -6 7 7 10 15 7 18 -3 3 -9 -2 -12 -12z"/>
<path d="M1053 1343 c-13 -2 -23 -8 -23 -13 0 -5 7 -6 17 -3 10 4 14 2 10 -4
-4 -6 0 -10 9 -9 30 2 25 -37 -8 -66 -18 -15 -27 -28 -21 -28 6 0 16 7 23 15
7 8 17 12 23 8 5 -3 7 -2 4 4 -3 5 7 24 22 41 28 30 31 53 4 31 -15 -13 -47 6
-37 22 3 5 4 8 2 8 -2 -1 -13 -4 -25 -6z"/>
<path d="M1425 1340 c-3 -6 1 -7 9 -4 18 7 21 14 7 14 -6 0 -13 -4 -16 -10z"/>
<path d="M2767 1339 c7 -7 15 -10 18 -7 3 3 -2 9 -12 12 -14 6 -15 5 -6 -5z"/>
<path d="M1480 1329 c0 -5 5 -7 10 -4 6 3 10 8 10 11 0 2 -4 4 -10 4 -5 0 -10
-5 -10 -11z"/>
<path d="M1669 1323 c-13 -15 -12 -15 11 -3 34 17 36 20 18 20 -9 0 -22 -7
-29 -17z"/>
<path d="M135 1320 c-3 -5 -1 -10 4 -10 6 0 11 5 11 10 0 6 -2 10 -4 10 -3 0
-8 -4 -11 -10z"/>
<path d="M1151 1323 c0 -7 -11 -24 -23 -38 -12 -14 -23 -38 -25 -53 -2 -23 1
-20 18 16 20 40 49 61 34 25 -4 -10 -10 -26 -12 -35 -3 -10 -10 -18 -16 -18
-6 0 -7 -3 -4 -7 4 -3 1 -13 -6 -21 -9 -13 -9 -14 1 -8 28 17 8 -14 -47 -73
-39 -41 -61 -58 -64 -49 -4 9 -6 10 -6 1 -1 -7 -5 -13 -10 -13 -5 0 -7 9 -4
20 3 10 8 19 12 18 18 -2 29 3 34 16 5 11 1 11 -24 -1 -34 -17 -84 -113 -65
-125 8 -5 7 -8 -2 -8 -7 0 -11 -4 -7 -9 3 -5 2 -12 -3 -15 -13 -8 -2 -63 14
-77 12 -9 11 -4 -1 30 -13 37 -13 43 0 47 8 4 15 14 15 23 0 9 6 23 13 30 10
10 8 11 -6 5 -16 -6 -16 -4 -6 19 14 30 44 25 36 -5 -4 -14 -1 -18 9 -14 10 4
14 -2 14 -19 0 -14 -4 -25 -10 -25 -5 0 -10 7 -10 16 0 8 -5 12 -10 9 -6 -4
-8 -11 -5 -16 4 -5 3 -15 -2 -21 -4 -7 -8 -16 -9 -20 -1 -5 -2 -11 -3 -15 -1
-5 -6 -1 -11 7 -8 13 -10 13 -10 -1 0 -9 7 -19 15 -23 8 -3 15 -16 15 -29 0
-13 9 -32 20 -42 24 -22 27 -9 4 16 -25 28 -12 47 14 21 12 -12 22 -17 22 -12
0 12 -32 45 -51 53 -9 4 -8 6 5 6 14 1 16 4 7 14 -6 8 -8 17 -4 20 14 14 22 6
29 -28 3 -20 12 -35 20 -35 8 0 14 -10 14 -26 0 -15 4 -23 11 -19 6 4 8 14 5
22 -3 8 -1 11 4 8 6 -3 10 -1 10 4 0 6 -7 11 -15 11 -9 0 -15 9 -15 21 0 18 5
21 28 17 28 -4 52 11 52 32 0 5 5 10 10 10 6 0 10 5 10 12 0 6 -13 -1 -29 -16
-21 -20 -30 -24 -34 -14 -4 10 -7 11 -15 0 -5 -7 -16 -10 -25 -6 -14 5 -16 2
-11 -12 4 -11 3 -16 -2 -11 -5 5 -9 21 -10 35 0 15 -4 42 -8 60 -5 22 -4 32 4
32 6 0 8 -5 4 -11 -4 -7 -1 -10 6 -7 7 2 14 11 16 21 1 9 18 30 37 47 20 17
36 39 36 48 1 45 14 83 27 78 8 -3 13 -2 13 2 -1 4 0 10 1 15 6 17 4 67 -2 67
-3 0 -9 8 -11 18 -3 9 -5 11 -6 5z m-66 -232 c-3 -6 -11 -11 -17 -11 -6 0 -6
6 2 15 14 17 26 13 15 -4z"/>
<path d="M1382 1321 c-11 -7 -11 -9 2 -14 10 -4 16 -1 16 8 0 17 -1 17 -18 6z"/>
<path d="M1841 1314 c0 -11 3 -14 6 -6 3 7 2 16 -1 19 -3 4 -6 -2 -5 -13z"/>
<path d="M1415 1310 c-3 -5 1 -10 10 -10 9 0 13 5 10 10 -3 6 -8 10 -10 10 -2
0 -7 -4 -10 -10z"/>
<path d="M1720 1311 c0 -6 4 -12 8 -15 5 -3 9 1 9 9 0 8 -4 15 -9 15 -4 0 -8
-4 -8 -9z"/>
<path d="M2060 1309 c0 -5 5 -7 10 -4 6 3 10 8 10 11 0 2 -4 4 -10 4 -5 0 -10
-5 -10 -11z"/>
<path d="M1197 1304 c-8 -8 1 -24 14 -24 5 0 9 7 9 15 0 15 -12 20 -23 9z"/>
<path d="M1346 1301 c-3 -5 1 -11 9 -14 9 -4 12 -1 8 9 -6 16 -10 17 -17 5z"/>
<path d="M1955 1299 c-4 -6 -4 -13 -1 -16 3 -4 6 -1 6 6 0 7 5 9 12 5 7 -4 8
-3 4 4 -9 15 -13 15 -21 1z"/>
<path d="M2020 1291 c0 -6 4 -13 10 -16 6 -3 7 1 4 9 -7 18 -14 21 -14 7z"/>
<path d="M80 1275 c-11 -13 -10 -14 4 -9 9 3 16 10 16 15 0 13 -6 11 -20 -6z"/>
<path d="M1600 1276 c0 -13 56 -46 79 -46 6 0 11 -4 11 -10 0 -5 0 -12 0 -15
0 -3 -1 -4 -3 -2 -1 1 -13 -7 -25 -19 -22 -20 -25 -54 -8 -71 5 -5 5 8 2 27
-7 33 -6 34 9 16 14 -19 21 -11 16 17 -1 5 7 11 17 14 14 3 18 11 14 29 -3 15
0 24 8 24 9 0 7 7 -5 20 -20 22 -35 26 -35 9 0 -5 4 -8 9 -5 5 3 11 -1 15 -9
3 -8 2 -16 -2 -18 -11 -6 -93 38 -85 46 3 4 1 7 -5 7 -7 0 -12 -6 -12 -14z"/>
<path d="M1650 1280 c-9 -6 -10 -10 -3 -10 6 0 15 5 18 10 8 12 4 12 -15 0z"/>
<path d="M1248 1273 c6 -2 12 -11 12 -19 0 -7 6 -11 14 -8 21 8 7 34 -18 33
-11 0 -15 -3 -8 -6z"/>
<path d="M1720 1276 c0 -2 7 -7 16 -10 8 -3 12 -2 9 4 -6 10 -25 14 -25 6z"/>
<path d="M1192 1258 c6 -18 28 -21 28 -4 0 9 -7 16 -16 16 -9 0 -14 -5 -12
-12z"/>
<path d="M1300 1252 c0 -15 -4 -21 -12 -16 -6 4 -8 3 -4 -4 3 -5 2 -12 -4 -14
-5 -2 -6 -9 -1 -17 7 -11 12 -7 24 16 10 19 12 34 6 44 -7 11 -9 9 -9 -9z"/>
<path d="M1937 1251 c-3 -11 2 -26 10 -32 12 -11 13 -8 7 17 -9 37 -10 39 -17
15z"/>
<path d="M1234 1253 c3 -6 -2 -16 -11 -22 -10 -6 -13 -10 -8 -11 6 0 17 5 25
10 13 8 13 11 1 22 -9 8 -12 9 -7 1z"/>
<path d="M1340 1250 c0 -5 5 -10 11 -10 5 0 7 5 4 10 -3 6 -8 10 -11 10 -2 0
-4 -4 -4 -10z"/>
<path d="M656 1234 c-5 -14 9 -54 19 -54 2 0 3 16 2 35 -2 37 -11 45 -21 19z"/>
<path d="M1380 1246 c0 -2 7 -7 16 -10 8 -3 12 -2 9 4 -6 10 -25 14 -25 6z"/>
<path d="M1990 1226 c0 -30 16 -43 22 -18 3 10 -1 23 -9 30 -11 11 -13 8 -13
-12z"/>
<path d="M0 1230 c0 -5 7 -7 15 -4 19 8 19 14 0 14 -8 0 -15 -4 -15 -10z"/>
<path d="M2690 1234 c0 -13 39 -49 62 -57 12 -4 15 -2 11 9 -3 8 -12 13 -19
10 -7 -3 -22 7 -33 22 -11 15 -21 22 -21 16z"/>
<path d="M1186 1222 c-4 -7 -4 -12 0 -12 4 0 -1 -7 -12 -15 -10 -8 -14 -15 -8
-15 16 0 37 27 32 42 -3 9 -6 9 -12 0z"/>
<path d="M1060 1195 c-13 -14 -19 -25 -13 -25 6 0 18 11 27 25 9 14 15 25 13
25 -2 0 -14 -11 -27 -25z"/>
<path d="M1616 1205 c4 -8 8 -15 10 -15 2 0 4 7 4 15 0 8 -4 15 -10 15 -5 0
-7 -7 -4 -15z"/>
<path d="M1877 1206 c-3 -8 -2 -18 3 -21 13 -8 24 15 12 27 -6 6 -11 4 -15 -6z"/>
<path d="M2192 1209 c2 -6 8 -10 13 -10 5 0 11 4 13 10 2 6 -4 11 -13 11 -9 0
-15 -5 -13 -11z"/>
<path d="M704 1198 c-4 -7 -14 -24 -22 -38 l-14 -25 20 25 c19 23 21 23 21 5
0 -11 2 -32 5 -47 5 -32 -7 -37 -24 -10 -10 15 -11 15 -5 -3 16 -44 16 -54 5
-94 -6 -25 -15 -39 -22 -35 -7 4 -8 -1 -3 -16 4 -13 3 -20 -2 -17 -5 3 -9 -2
-9 -11 0 -67 -6 -103 -19 -116 -8 -8 -15 -23 -15 -33 0 -39 -15 -43 -40 -13
-14 17 -29 30 -34 30 -5 0 0 -10 12 -23 12 -13 22 -28 22 -33 0 -18 34 -32 47
-19 7 7 10 15 7 17 -2 3 5 34 15 69 99 316 96 305 76 347 -9 17 -14 36 -10 42
3 5 4 10 1 10 -3 0 -8 -6 -12 -12z"/>
<path d="M1380 1204 c0 -7 52 -25 57 -20 2 2 -10 8 -26 14 -17 6 -31 9 -31 6z"/>
<path d="M1302 1180 c-7 -11 -8 -20 -2 -20 5 0 14 9 20 20 6 11 7 20 3 20 -5
0 -14 -9 -21 -20z"/>
<path d="M1946 1188 c11 -18 -8 -28 -21 -11 -13 17 -14 17 -11 -2 4 -26 33
-31 57 -10 21 20 17 34 -11 32 -10 -1 -16 -5 -14 -9z"/>
<path d="M1081 1174 c0 -11 3 -14 6 -6 3 7 2 16 -1 19 -3 4 -6 -2 -5 -13z"/>
<path d="M922 1168 c-8 -8 -8 -16 -2 -23 7 -8 4 -18 -10 -30 -11 -10 -20 -24
-20 -30 0 -14 -29 -29 -38 -20 -3 3 0 5 7 5 7 0 9 5 6 10 -3 6 -1 10 4 10 6 0
11 4 11 10 0 16 -28 0 -32 -18 -7 -30 2 -54 16 -42 10 8 13 4 11 -15 -2 -14 1
-25 6 -25 5 0 9 11 9 24 0 12 11 44 25 69 15 28 20 49 14 53 -6 4 -6 11 2 20
14 17 8 19 -9 2z"/>
<path d="M1375 1170 c-3 -6 1 -7 9 -4 18 7 21 14 7 14 -6 0 -13 -4 -16 -10z"/>
<path d="M1470 1165 c-12 -14 -6 -35 10 -35 5 0 6 7 3 17 -4 11 -3 14 5 9 8
-5 10 -2 6 8 -7 20 -9 20 -24 1z"/>
<path d="M1600 1165 c7 -8 16 -15 21 -15 5 0 6 7 3 15 -4 8 -13 15 -21 15 -13
0 -13 -3 -3 -15z"/>
<path d="M1723 1170 c2 -8 12 -16 23 -17 13 -2 15 -1 4 4 -8 3 -19 11 -23 17
-6 7 -7 6 -4 -4z"/>
<path d="M630 1156 c0 -8 -6 -16 -12 -19 -7 -2 -10 -8 -6 -12 5 -5 17 2 28 15
24 28 24 30 5 30 -8 0 -15 -6 -15 -14z"/>
<path d="M1146 1144 c-3 -12 -9 -29 -12 -38 -13 -34 12 -13 27 22 12 30 13 39
3 39 -7 0 -15 -10 -18 -23z"/>
<path d="M1319 1153 c-13 -16 -12 -17 4 -4 16 13 21 21 13 21 -2 0 -10 -8 -17
-17z"/>
<path d="M1548 1163 c15 -6 16 -49 1 -59 -6 -3 -15 -1 -19 6 -5 8 -9 7 -13 -5
-5 -11 -3 -14 5 -9 8 5 9 1 4 -11 -6 -18 -6 -18 15 1 l21 19 -7 -35 c-6 -29
-5 -33 6 -22 8 7 14 37 15 67 1 50 0 55 -20 54 -11 0 -15 -3 -8 -6z"/>
<path d="M1880 1159 c0 -5 5 -7 10 -4 6 3 10 8 10 11 0 2 -4 4 -10 4 -5 0 -10
-5 -10 -11z"/>
<path d="M1396 1145 c4 -8 8 -15 10 -15 2 0 4 7 4 15 0 8 -4 15 -10 15 -5 0
-7 -7 -4 -15z"/>
<path d="M1694 1141 c0 -11 4 -17 8 -15 4 3 8 12 8 20 0 8 -4 14 -8 14 -4 0
-8 -9 -8 -19z"/>
<path d="M2882 1145 c15 -16 20 -17 30 -6 11 11 10 13 0 7 -7 -4 -21 -2 -30 5
-15 12 -15 11 0 -6z"/>
<path d="M1270 1140 c0 -5 7 -7 15 -4 8 4 15 8 15 10 0 2 -7 4 -15 4 -8 0 -15
-4 -15 -10z"/>
<path d="M1354 1111 c-10 -23 -25 -41 -32 -41 -10 0 -10 -3 0 -14 13 -14 20
-14 20 1 0 17 19 43 27 38 13 -7 22 24 13 41 -6 11 -13 5 -28 -25z"/>
<path d="M2098 1143 c7 -3 16 -2 19 1 4 3 -2 6 -13 5 -11 0 -14 -3 -6 -6z"/>
<path d="M953 1120 c1 -21 10 -18 13 5 1 8 -2 15 -6 15 -5 0 -8 -9 -7 -20z"/>
<path d="M1721 1135 c-2 -5 -5 -23 -7 -40 -3 -25 -2 -27 7 -12 5 10 8 28 6 40
-2 12 -5 18 -6 12z"/>
<path d="M1746 1127 c3 -10 9 -15 12 -12 3 3 0 11 -7 18 -10 9 -11 8 -5 -6z"/>
<path d="M1290 1115 c0 -8 2 -15 4 -15 2 0 6 7 10 15 3 8 1 15 -4 15 -6 0 -10
-7 -10 -15z"/>
<path d="M1410 1114 c-11 -12 -11 -15 1 -12 15 3 16 -13 4 -47 -3 -11 3 -4 14
15 16 29 17 36 5 38 -8 2 -12 8 -9 13 10 15 -1 10 -15 -7z"/>
<path d="M2590 1121 c0 -6 4 -13 10 -16 6 -3 7 1 4 9 -7 18 -14 21 -14 7z"/>
<path d="M648 1095 c-9 -19 -14 -22 -20 -13 -6 8 -7 5 -3 -10 6 -22 5 -23 -15
-12 -12 7 -20 8 -16 2 5 -8 -1 -35 -19 -87 -6 -16 -5 -17 4 -5 6 9 11 10 11 3
0 -25 -12 -42 -27 -36 -13 5 -15 1 -9 -21 5 -20 4 -26 -5 -20 -8 4 -9 3 -5 -4
4 -6 2 -21 -4 -32 -6 -11 -8 -20 -6 -20 14 0 60 110 62 149 3 40 24 86 24 51
0 -9 5 -8 15 6 13 17 14 17 15 2 0 -10 5 -18 10 -18 13 0 13 13 -2 28 -9 9 -9
18 0 37 6 14 9 25 7 25 -3 0 -11 -11 -17 -25z"/>
<path d="M1470 1111 c0 -6 5 -13 10 -16 7 -4 7 -12 0 -25 -16 -30 -12 -36 9
-13 22 23 18 63 -5 63 -8 0 -14 -4 -14 -9z"/>
<path d="M1845 1109 c-4 -6 -5 -12 -2 -15 2 -3 7 2 10 11 7 17 1 20 -8 4z"/>
<path d="M1590 1098 c1 -7 16 -23 35 -34 32 -21 33 -21 38 -3 5 19 -9 36 -20
25 -4 -3 -1 -6 6 -6 7 0 9 -4 6 -10 -8 -12 -45 10 -45 27 0 7 -4 13 -10 13 -5
0 -10 -6 -10 -12z"/>
<path d="M1733 1075 c-6 -14 -7 -25 -2 -25 11 0 22 25 17 39 -1 6 -8 -1 -15
-14z"/>
<path d="M916 1074 c-5 -14 -4 -15 9 -4 17 14 19 20 6 20 -5 0 -12 -7 -15 -16z"/>
<path d="M1380 1070 c-6 -11 -7 -20 -3 -20 5 0 14 9 21 20 7 11 8 20 2 20 -5
0 -14 -9 -20 -20z"/>
<path d="M1455 1080 c3 -5 1 -10 -4 -10 -6 0 -11 -8 -11 -17 0 -15 2 -14 15 3
17 23 19 34 4 34 -5 0 -7 -4 -4 -10z"/>
<path d="M928 1055 c-29 -25 -36 -49 -18 -60 6 -3 10 3 10 14 0 12 5 21 11 21
5 0 7 5 4 10 -3 6 -2 10 3 10 6 0 12 7 16 15 7 19 6 19 -26 -10z"/>
<path d="M1111 1053 c1 -4 1 -26 0 -48 -1 -30 -4 -36 -11 -25 -5 8 -10 26 -10
40 0 23 -1 22 -18 -10 -18 -36 -18 -60 0 -60 6 0 4 8 -3 17 -13 17 -13 17 12
1 26 -16 27 -16 55 13 15 16 23 29 16 29 -6 0 -16 -8 -22 -17 -8 -14 -9 -10
-5 19 2 20 0 40 -5 43 -6 4 -10 3 -9 -2z"/>
<path d="M1525 1051 c-3 -6 -4 -11 0 -11 3 0 1 -9 -5 -20 -6 -11 -7 -20 -1
-20 5 0 12 12 15 26 7 28 2 42 -9 25z"/>
<path d="M1587 1046 c-9 -7 -17 -22 -18 -32 0 -18 -1 -18 -10 1 -7 15 -8 13
-3 -11 4 -26 2 -32 -12 -30 -9 0 -19 -6 -22 -14 -5 -13 -3 -13 13 0 10 8 21
13 24 10 3 -3 12 11 19 30 l13 35 -6 -33 c-6 -44 12 -32 21 14 8 42 5 47 -19
30z"/>
<path d="M1676 1040 c-10 -10 -15 -24 -11 -30 8 -12 -12 -40 -28 -40 -7 0 -7
4 1 12 7 7 12 16 12 20 0 4 -9 -1 -20 -12 -11 -11 -20 -26 -20 -34 0 -8 -7
-16 -15 -20 -8 -3 -14 -11 -13 -17 2 -6 -7 -13 -20 -15 l-23 -4 22 32 c16 22
17 28 6 19 -13 -10 -17 -10 -17 -1 0 10 -3 10 -15 0 -8 -7 -15 -9 -15 -4 0 5
-21 -14 -46 -41 -25 -28 -43 -42 -40 -32 5 15 2 16 -14 7 -11 -6 -20 -14 -20
-19 0 -11 31 -7 56 7 12 6 24 8 28 5 3 -3 6 0 6 8 0 9 14 25 30 37 29 22 42
18 18 -6 -7 -7 -9 -12 -5 -12 3 0 -5 -11 -18 -25 -14 -13 -25 -30 -24 -37 0
-9 2 -10 5 -1 3 7 13 9 21 6 13 -5 15 -2 10 11 -5 13 -1 19 13 23 11 3 20 10
20 16 0 6 3 8 6 5 3 -4 -2 -18 -11 -32 -30 -46 -9 -28 34 29 23 30 38 55 34
55 -4 0 3 6 17 13 17 9 28 10 33 3 6 -7 7 -5 4 4 -3 9 3 33 13 53 20 40 15 46
-14 17z"/>
<path d="M1781 1044 c0 -11 3 -14 6 -6 3 7 2 16 -1 19 -3 4 -6 -2 -5 -13z"/>
<path d="M1811 1044 c0 -11 3 -14 6 -6 3 7 2 16 -1 19 -3 4 -6 -2 -5 -13z"/>
<path d="M2580 1045 c0 -8 6 -15 13 -15 8 0 14 7 14 15 0 8 -6 15 -14 15 -7 0
-13 -7 -13 -15z"/>
<path d="M1235 1040 c-3 -5 -2 -10 4 -10 5 0 13 5 16 10 3 6 2 10 -4 10 -5 0
-13 -4 -16 -10z"/>
<path d="M1620 1023 c0 -22 2 -25 10 -13 13 20 13 40 0 40 -5 0 -10 -12 -10
-27z"/>
<path d="M1707 1026 c-4 -10 -1 -13 9 -9 15 6 19 23 5 23 -5 0 -11 -7 -14 -14z"/>
<path d="M1995 1032 c-27 -20 -35 -39 -21 -51 11 -9 15 -8 19 3 4 11 1 13 -11
9 -12 -5 -10 1 7 20 24 26 26 34 6 19z"/>
<path d="M2024 1018 c-19 -21 -19 -21 6 -8 33 17 33 17 22 24 -5 3 -18 -4 -28
-16z"/>
<path d="M1255 1020 c-3 -5 3 -10 14 -10 12 0 21 5 21 10 0 6 -6 10 -14 10 -8
0 -18 -4 -21 -10z"/>
<path d="M2610 1015 c-7 -8 -16 -13 -20 -10 -12 8 -20 -9 -41 -84 -9 -36 -45
-147 -79 -246 -70 -206 -203 -666 -194 -674 7 -7 23 19 30 49 13 61 39 147 51
170 l13 25 -6 -30 c-3 -16 -7 -39 -9 -50 -2 -11 -8 -33 -14 -48 -6 -16 -8 -33
-5 -39 5 -7 2 -8 -6 -3 -9 5 -10 2 -5 -14 3 -11 2 -21 -3 -21 -5 0 -12 -9 -15
-20 -3 -12 0 -20 7 -20 13 0 59 139 76 230 11 62 48 180 60 195 11 14 60 103
60 109 0 3 -7 3 -15 0 -8 -4 -12 -10 -9 -15 3 -5 2 -9 -3 -9 -4 0 -21 -23 -36
-50 -16 -28 -30 -50 -33 -50 -6 0 5 60 16 79 4 9 18 53 29 98 28 112 70 193
101 193 7 0 6 5 -2 14 -9 10 -15 11 -20 2 -5 -7 -8 -6 -8 5 0 8 4 19 9 25 6 5
12 21 15 36 2 15 7 32 11 38 3 5 7 25 9 45 2 36 31 68 54 60 14 -5 17 11 3 19
-5 3 -14 -1 -21 -9z"/>
<path d="M450 987 c-14 -17 -31 -40 -39 -51 l-15 -21 23 20 c26 23 65 75 60
79 -2 2 -15 -10 -29 -27z"/>
<path d="M630 1008 c0 -9 5 -20 10 -23 13 -8 13 5 0 25 -8 13 -10 13 -10 -2z"/>
<path d="M774 984 c-3 -11 -14 -36 -24 -56 -11 -21 -16 -38 -13 -38 13 0 48
56 45 75 -3 20 -2 20 13 1 12 -16 15 -17 15 -4 0 8 -7 21 -15 28 -12 10 -16 9
-21 -6z"/>
<path d="M1276 984 c-23 -23 -20 -30 4 -9 11 10 20 20 20 22 0 7 -9 2 -24 -13z"/>
<path d="M2821 991 c-9 -6 -7 -10 8 -14 12 -3 21 -1 21 3 0 14 -15 19 -29 11z"/>
<path d="M1435 981 c-3 -6 -2 -11 3 -11 14 0 3 -37 -14 -51 -21 -17 -17 -31 5
-20 10 6 20 9 22 6 2 -2 4 14 4 35 -1 41 -9 58 -20 41z"/>
<path d="M2615 980 c-3 -5 -1 -10 4 -10 6 0 11 5 11 10 0 6 -2 10 -4 10 -3 0
-8 -4 -11 -10z"/>
<path d="M534 961 c0 -11 5 -17 13 -14 10 4 11 9 2 19 -15 18 -15 18 -15 -5z"/>
<path d="M870 960 c-19 -27 -19 -43 0 -55 14 -9 15 -15 3 -50 l-13 -40 3 43
c2 28 -2 42 -10 42 -9 0 -11 -10 -7 -32 3 -18 9 -55 14 -83 5 -27 12 -75 16
-105 3 -30 17 -89 29 -130 46 -150 85 -297 85 -320 0 -13 5 -38 12 -56 9 -26
9 -47 -4 -103 -14 -68 -14 -71 4 -71 26 0 49 59 47 116 -2 32 -7 44 -18 44
-13 0 -14 2 -2 9 9 6 12 18 7 37 -3 16 -9 40 -12 53 -2 13 -11 35 -18 50 -16
30 -70 203 -97 311 -27 105 -33 217 -13 255 14 27 14 31 -2 42 -10 7 -22 13
-27 13 -5 0 -4 7 3 15 10 12 15 13 21 4 4 -8 11 -4 20 12 11 21 11 23 -3 11
-11 -8 -17 -9 -20 -2 -2 6 -10 1 -18 -10z m158 -765 c-3 -3 -9 2 -12 12 -6 14
-5 15 5 6 7 -7 10 -15 7 -18z m12 -115 c0 -5 -5 -10 -11 -10 -5 0 -7 5 -4 10
3 6 8 10 11 10 2 0 4 -4 4 -10z m-17 -45 c-3 -9 -8 -14 -10 -11 -3 3 -2 9 2
15 9 16 15 13 8 -4z"/>
<path d="M1490 959 c0 -5 5 -7 10 -4 6 3 10 8 10 11 0 2 -4 4 -10 4 -5 0 -10
-5 -10 -11z"/>
<path d="M2004 950 c0 -13 4 -16 10 -10 7 7 7 13 0 20 -6 6 -10 3 -10 -10z"/>
<path d="M2800 960 c-8 -5 -10 -10 -5 -10 6 0 17 5 25 10 8 5 11 10 5 10 -5 0
-17 -5 -25 -10z"/>
<path d="M1400 946 c0 -8 -2 -23 -5 -33 -3 -10 1 -6 8 10 7 15 17 24 22 20 4
-5 5 -2 1 5 -10 16 -26 15 -26 -2z"/>
<path d="M1467 940 c-3 -11 -1 -20 4 -20 5 0 9 9 9 20 0 11 -2 20 -4 20 -2 0
-6 -9 -9 -20z"/>
<path d="M2590 952 c0 -12 19 -26 26 -19 2 2 -2 10 -11 17 -9 8 -15 8 -15 2z"/>
<path d="M1662 925 c0 -16 2 -22 5 -12 2 9 2 23 0 30 -3 6 -5 -1 -5 -18z"/>
<path d="M2126 923 c-6 -14 -5 -15 5 -6 7 7 10 15 7 18 -3 3 -9 -2 -12 -12z"/>
<path d="M515 921 c-3 -5 -1 -12 5 -16 5 -3 10 1 10 9 0 18 -6 21 -15 7z"/>
<path d="M1910 919 c0 -5 5 -7 10 -4 6 3 10 8 10 11 0 2 -4 4 -10 4 -5 0 -10
-5 -10 -11z"/>
<path d="M2664 918 c9 -5 23 -5 32 0 12 6 7 9 -16 9 -23 0 -28 -3 -16 -9z"/>
<path d="M2620 911 c0 -5 7 -12 16 -15 14 -5 15 -4 4 9 -14 17 -20 19 -20 6z"/>
<path d="M781 884 c-6 -15 -9 -29 -7 -32 3 -2 10 8 16 23 6 15 13 25 16 22 3
-3 -9 -31 -26 -63 -17 -33 -29 -49 -26 -36 2 13 0 20 -6 16 -5 -3 -7 -15 -5
-26 3 -11 -4 -39 -16 -62 -20 -39 -24 -42 -44 -33 -13 6 -23 14 -23 19 0 14
-18 9 -24 -8 -4 -11 -2 -15 8 -11 8 3 20 -1 27 -9 6 -8 14 -12 17 -9 3 3 11
-4 18 -16 l12 -22 0 24 c0 13 23 67 51 119 28 52 50 101 49 109 -5 25 -24 23
-37 -5z"/>
<path d="M1853 903 c9 -2 23 -2 30 0 6 3 -1 5 -18 5 -16 0 -22 -2 -12 -5z"/>
<path d="M1905 890 c-3 -6 1 -7 9 -4 18 7 21 14 7 14 -6 0 -13 -4 -16 -10z"/>
<path d="M400 880 l-25 -8 25 0 c14 0 34 3 45 8 20 9 20 9 0 8 -11 0 -31 -4
-45 -8z"/>
<path d="M478 883 c7 -3 16 -2 19 1 4 3 -2 6 -13 5 -11 0 -14 -3 -6 -6z"/>
<path d="M1366 871 c-17 -19 -17 -19 2 -14 12 3 23 11 26 19 8 20 -8 17 -28
-5z"/>
<path d="M1776 881 c-17 -6 -17 -8 -4 -14 10 -3 19 0 22 9 3 8 4 14 3 13 -1 0
-11 -4 -21 -8z"/>
<path d="M2432 833 c-30 -81 -27 -93 4 -18 13 32 23 63 21 69 -2 5 -13 -18
-25 -51z"/>
<path d="M2930 880 c0 -5 5 -10 11 -10 5 0 7 5 4 10 -3 6 -8 10 -11 10 -2 0
-4 -4 -4 -10z"/>
<path d="M510 865 c0 -8 2 -15 4 -15 2 0 6 7 10 15 3 8 1 15 -4 15 -6 0 -10
-7 -10 -15z"/>
<path d="M731 873 c0 -7 -1 -16 0 -19 0 -4 -5 -10 -12 -15 -8 -4 -10 -11 -6
-15 13 -13 29 12 24 37 -2 13 -5 18 -6 12z"/>
<path d="M2874 868 c-3 -5 -11 -5 -17 -2 -7 4 -6 1 2 -7 10 -10 15 -11 18 -2
2 7 10 10 18 7 7 -3 16 -1 19 5 4 5 -3 9 -15 8 -11 -1 -23 -5 -25 -9z"/>
<path d="M1101 859 c-1 -9 -16 -24 -33 -33 -26 -12 -29 -16 -12 -16 11 0 29
-9 39 -20 11 -12 13 -20 6 -20 -7 0 -9 -5 -5 -11 5 -8 -1 -10 -20 -7 -16 3
-26 1 -26 -7 0 -7 14 -11 33 -11 27 1 33 4 29 18 -7 27 44 43 66 21 16 -16 16
-16 0 -10 -10 3 -28 2 -40 -4 l-23 -10 22 5 c25 4 57 -24 35 -31 -6 -3 -10 -9
-6 -14 3 -5 0 -9 -5 -9 -6 0 -11 9 -11 20 0 11 -4 20 -9 20 -13 0 -9 -40 4
-42 5 0 15 -2 20 -2 20 -3 35 -18 29 -28 -5 -7 -1 -9 9 -5 22 8 29 -19 10 -35
-15 -11 -16 -11 -10 5 3 9 2 17 -4 17 -6 0 -9 -8 -7 -18 2 -11 -3 -26 -10 -35
-11 -13 -10 -15 6 -10 11 2 25 16 31 30 13 29 37 26 33 -5 -2 -11 2 -23 8 -27
6 -4 10 -3 9 2 -5 29 4 33 69 33 67 0 84 6 111 43 11 14 11 17 -2 17 -8 0 -17
-10 -20 -21 -4 -16 -11 -20 -26 -16 -12 3 -24 1 -27 -4 -3 -5 -17 -9 -32 -8
-15 0 -20 3 -12 6 47 16 81 37 124 78 28 26 40 42 27 37 -11 -4 -35 -21 -53
-38 -40 -37 -86 -52 -94 -29 -4 8 -13 15 -22 15 -12 0 -10 -6 8 -25 13 -14 18
-25 12 -25 -7 0 -12 4 -12 10 0 5 -7 7 -15 4 -8 -4 -15 -1 -15 6 0 6 -4 8 -10
5 -17 -11 -11 7 8 21 14 11 14 13 2 14 -12 0 -11 4 4 15 11 8 16 18 13 22 -11
10 -57 -38 -57 -59 0 -16 -2 -17 -14 -6 -12 11 -11 17 7 37 19 21 20 23 4 18
-10 -4 -22 -7 -27 -7 -5 0 -12 -9 -15 -20 -4 -11 -11 -17 -17 -14 -7 4 -7 9 0
13 5 3 10 20 10 36 0 32 -16 70 -25 61 -3 -3 -14 4 -24 15 -9 11 -21 20 -25
19 -5 -1 -11 7 -15 17 -6 15 -8 15 -8 2z m30 -39 c25 -14 24 -30 -1 -30 -11 0
-20 2 -20 4 0 2 -3 11 -6 20 -7 19 0 20 27 6z m153 -189 c-7 -8 -35 9 -29 19
4 6 11 5 20 -3 7 -6 11 -14 9 -16z"/>
<path d="M2604 863 c4 -7 -2 -18 -14 -25 -11 -7 -20 -19 -20 -26 0 -9 6 -9 24
3 24 16 28 37 11 52 -4 4 -5 3 -1 -4z"/>
<path d="M930 851 c0 -6 5 -11 11 -11 6 0 8 -7 5 -16 -3 -9 -2 -12 5 -9 5 4
16 1 24 -5 12 -10 15 -10 15 2 0 7 -13 22 -30 31 -17 10 -30 13 -30 8z"/>
<path d="M1451 847 c-6 -8 -8 -16 -5 -19 2 -3 -3 -8 -12 -12 -12 -4 -15 -2
-10 9 3 8 1 15 -4 15 -14 0 -19 -15 -13 -38 5 -19 7 -20 20 -6 9 8 24 12 37 9
11 -2 15 -2 8 1 -10 5 -10 9 -1 20 10 12 8 13 -7 8 -18 -5 -18 -5 0 10 11 9
15 16 9 16 -6 0 -16 -6 -22 -13z"/>
<path d="M1730 850 c-9 -6 -10 -10 -3 -10 6 0 15 5 18 10 8 12 4 12 -15 0z"/>
<path d="M2715 850 c2 -3 -6 -13 -18 -21 -34 -22 -77 -70 -72 -79 3 -4 -6 -11
-20 -14 -14 -4 -25 -13 -25 -21 0 -8 0 -18 -1 -22 0 -4 5 -9 12 -12 8 -2 10 3
7 17 -4 13 -2 19 6 16 13 -5 69 63 62 75 -3 5 4 12 17 15 27 7 63 53 42 53 -8
0 -12 -3 -10 -7z"/>
<path d="M2803 838 c-15 -16 -20 -31 -16 -51 3 -16 0 -35 -9 -45 -7 -9 -24
-37 -38 -62 -27 -52 -80 -127 -80 -115 0 5 -11 -2 -25 -15 -13 -12 -22 -27
-19 -32 3 -5 2 -8 -3 -7 -24 4 -34 -2 -29 -19 7 -20 -46 -97 -57 -85 -3 3 7
19 23 35 29 29 38 48 23 48 -11 0 -40 -20 -30 -20 4 0 -1 -10 -13 -22 -12 -13
-18 -29 -14 -40 3 -11 -1 -20 -10 -24 -15 -6 -32 -41 -28 -56 1 -5 -3 -8 -9
-8 -5 0 -8 -4 -4 -10 3 -5 1 -17 -4 -27 -21 -42 -44 -104 -39 -108 9 -9 78 82
78 102 0 38 54 126 114 187 104 106 226 255 215 262 -6 3 -8 12 -5 19 3 8 -1
19 -9 25 -16 13 -14 52 5 74 19 24 6 19 -17 -6z m-7 -125 c-2 -9 -8 -19 -15
-21 -10 -3 -10 0 -2 16 6 10 7 23 3 27 -4 5 -2 5 5 2 6 -4 10 -15 9 -24z
m-294 -375 c-7 -7 -12 -8 -12 -2 0 14 12 26 19 19 2 -3 -1 -11 -7 -17z"/>
<path d="M606 837 c3 -10 9 -15 12 -12 3 3 0 11 -7 18 -10 9 -11 8 -5 -6z"/>
<path d="M1379 845 c-1 -3 -3 -9 -4 -15 -1 -5 -4 -12 -5 -15 -3 -7 -7 -23 -9
-37 0 -6 -4 -8 -8 -5 -3 4 -12 2 -20 -4 -24 -20 -14 4 14 33 15 15 23 28 17
28 -12 -1 -50 -30 -38 -30 5 0 2 -5 -6 -10 -11 -7 -12 -14 -4 -27 14 -23 26
-25 48 -8 17 13 36 95 22 95 -4 0 -7 -2 -7 -5z"/>
<path d="M1740 833 c-14 -7 -18 -13 -10 -13 17 0 47 17 40 23 -3 2 -16 -2 -30
-10z"/>
<path d="M2838 809 c-18 -18 -24 -30 -17 -35 15 -9 66 43 54 54 -6 5 -22 -3
-37 -19z"/>
<path d="M1262 802 c-11 -25 -11 -25 4 -10 9 9 15 21 13 27 -2 6 -10 -2 -17
-17z"/>
<path d="M1504 824 c-7 -3 -10 -14 -7 -25 5 -17 2 -18 -19 -10 -31 12 -42 5
-61 -41 -11 -27 -23 -38 -46 -43 -17 -4 -29 -11 -26 -15 7 -11 73 25 97 53 10
11 30 22 45 23 27 3 50 26 32 32 -6 3 -6 9 2 18 11 14 5 17 -17 8z"/>
<path d="M1686 821 c-3 -5 3 -11 13 -14 14 -3 18 -1 14 9 -6 16 -19 18 -27 5z"/>
<path d="M350 799 c0 -25 46 -94 54 -81 3 5 -1 18 -9 28 -18 24 -19 38 -1 31
10 -4 12 0 9 14 -3 11 0 19 7 19 6 0 14 -9 17 -20 7 -27 17 -25 31 5 l12 25
-60 0 c-54 0 -60 -2 -60 -21z"/>
<path d="M468 780 c-9 -23 -22 -39 -30 -37 -7 2 -10 2 -6 0 9 -5 -2 -36 -16
-45 -14 -9 0 -22 14 -13 6 4 15 18 20 31 5 13 16 24 24 24 8 0 17 8 20 18 2 9
7 27 11 40 11 39 -19 25 -37 -18z"/>
<path d="M1287 799 c-4 -15 -20 -31 -39 -41 l-33 -16 34 2 c26 1 36 7 43 26 5
13 7 31 5 39 -2 10 -5 7 -10 -10z"/>
<path d="M2009 803 c-13 -16 -12 -17 4 -4 16 13 21 21 13 21 -2 0 -10 -8 -17
-17z"/>
<path d="M2149 803 c-13 -16 -12 -17 4 -4 9 7 17 15 17 17 0 8 -8 3 -21 -13z"/>
<path d="M1610 802 c0 -10 -70 -48 -84 -45 -6 1 -24 -14 -40 -33 -18 -22 -22
-32 -12 -28 9 4 16 3 14 -2 -2 -5 1 -9 7 -9 5 0 8 11 7 25 -2 20 -1 22 7 10
10 -13 11 -13 11 0 0 8 25 28 55 44 50 26 70 46 45 46 -5 0 -10 -3 -10 -8z"/>
<path d="M945 789 c-4 -6 -5 -12 -2 -15 2 -3 7 2 10 11 7 17 1 20 -8 4z"/>
<path d="M1010 785 c0 -8 8 -15 18 -14 10 0 12 3 4 6 -6 2 -10 9 -6 14 3 5 0
9 -5 9 -6 0 -11 -7 -11 -15z"/>
<path d="M2158 784 c-32 -17 -34 -20 -12 -28 8 -3 12 -2 9 3 -3 5 4 12 15 16
11 3 20 11 20 16 0 11 1 11 -32 -7z"/>
<path d="M1220 780 c0 -5 5 -10 11 -10 5 0 7 5 4 10 -3 6 -8 10 -11 10 -2 0
-4 -4 -4 -10z"/>
<path d="M2925 780 c-3 -5 1 -10 10 -10 9 0 13 5 10 10 -3 6 -8 10 -10 10 -2
0 -7 -4 -10 -10z"/>
<path d="M815 757 c10 -15 20 -25 23 -22 3 3 -5 16 -17 28 l-23 22 17 -28z"/>
<path d="M1058 773 c7 -3 16 -2 19 1 4 3 -2 6 -13 5 -11 0 -14 -3 -6 -6z"/>
<path d="M1390 761 c0 -15 -9 -21 -40 -26 -22 -4 -42 -11 -46 -16 -6 -11 56
-12 72 -1 19 12 35 50 24 57 -5 3 -10 -3 -10 -14z"/>
<path d="M1641 772 c-1 -7 -5 -11 -10 -8 -18 12 -18 -20 1 -57 22 -43 22 -42
-12 -56 -24 -9 -23 -9 8 -9 37 1 40 13 15 65 -13 28 -14 36 -3 43 7 4 10 14 7
21 -4 11 -6 11 -6 1z"/>
<path d="M985 760 c3 -5 8 -10 11 -10 2 0 4 5 4 10 0 6 -5 10 -11 10 -5 0 -7
-4 -4 -10z"/>
<path d="M1856 757 c3 -10 9 -15 12 -12 3 3 0 11 -7 18 -10 9 -11 8 -5 -6z"/>
<path d="M540 735 c0 -8 4 -15 10 -15 5 0 7 7 4 15 -4 8 -8 15 -10 15 -2 0 -4
-7 -4 -15z"/>
<path d="M1004 728 l-19 -23 23 19 c21 18 27 26 19 26 -2 0 -12 -10 -23 -22z"/>
<path d="M2081 733 c-18 -19 -10 -25 12 -8 10 7 15 15 10 18 -4 3 -14 -2 -22
-10z"/>
<path d="M2855 740 c-3 -5 -1 -10 4 -10 6 0 11 5 11 10 0 6 -2 10 -4 10 -3 0
-8 -4 -11 -10z"/>
<path d="M2926 737 c3 -10 9 -15 12 -12 3 3 0 11 -7 18 -10 9 -11 8 -5 -6z"/>
<path d="M667 729 c7 -7 15 -10 18 -7 3 3 -2 9 -12 12 -14 6 -15 5 -6 -5z"/>
<path d="M1578 733 c7 -3 16 -2 19 1 4 3 -2 6 -13 5 -11 0 -14 -3 -6 -6z"/>
<path d="M2130 730 c-9 -6 -10 -10 -3 -10 6 0 15 5 18 10 8 12 4 12 -15 0z"/>
<path d="M1050 707 c14 -13 28 -22 32 -20 4 2 9 -1 13 -7 10 -16 25 -12 19 5
-4 8 -10 12 -15 9 -5 -3 -9 -1 -9 5 0 5 8 12 18 14 13 4 11 5 -5 6 -13 0 -23
-5 -23 -11 0 -9 -3 -9 -8 -2 -4 6 -16 14 -27 18 -16 6 -15 3 5 -17z"/>
<path d="M1736 721 c-3 -5 1 -14 8 -20 12 -10 13 -8 9 8 -6 23 -9 25 -17 12z"/>
<path d="M481 710 c0 -14 28 -72 29 -59 0 4 -7 22 -15 40 -8 19 -14 27 -14 19z"/>
<path d="M510 701 c0 -6 4 -13 10 -16 6 -3 7 1 4 9 -7 18 -14 21 -14 7z"/>
<path d="M555 699 c-4 -6 -5 -12 -2 -15 2 -3 7 2 10 11 7 17 1 20 -8 4z"/>
<path d="M790 690 c6 -11 13 -20 16 -20 2 0 0 9 -6 20 -6 11 -13 20 -16 20 -2
0 0 -9 6 -20z"/>
<path d="M1665 700 c-3 -6 1 -7 9 -4 18 7 21 14 7 14 -6 0 -13 -4 -16 -10z"/>
<path d="M810 696 c0 -2 8 -10 18 -17 15 -13 16 -12 3 4 -13 16 -21 21 -21 13z"/>
<path d="M2075 688 c-30 -18 -60 -48 -47 -48 6 0 14 5 17 10 4 6 11 7 17 4 7
-4 8 -2 4 4 -4 7 -1 12 6 12 7 0 22 7 32 15 24 18 1 20 -29 3z"/>
<path d="M2547 693 c-2 -5 -1 -21 2 -36 6 -27 6 -27 19 -7 10 17 10 21 -3 26
-8 3 -12 10 -9 15 3 5 3 9 0 9 -3 0 -7 -3 -9 -7z"/>
<path d="M1688 683 c6 -2 18 -2 25 0 6 3 1 5 -13 5 -14 0 -19 -2 -12 -5z"/>
<path d="M620 660 c-6 -11 -8 -20 -6 -20 3 0 10 9 16 20 6 11 8 20 6 20 -3 0
-10 -9 -16 -20z"/>
<path d="M1156 672 c-3 -5 1 -9 9 -9 8 0 12 4 9 9 -3 4 -7 8 -9 8 -2 0 -6 -4
-9 -8z"/>
<path d="M1520 673 c0 -6 9 -21 21 -34 l20 -24 -17 30 c-24 39 -24 40 -24 28z"/>
<path d="M1777 669 c7 -7 15 -10 18 -7 3 3 -2 9 -12 12 -14 6 -15 5 -6 -5z"/>
<path d="M1875 670 c-3 -5 -1 -10 4 -10 6 0 11 5 11 10 0 6 -2 10 -4 10 -3 0
-8 -4 -11 -10z"/>
<path d="M1050 666 c0 -2 7 -6 15 -10 8 -3 15 -1 15 4 0 6 -7 10 -15 10 -8 0
-15 -2 -15 -4z"/>
<path d="M2107 655 c-9 -8 -24 -15 -35 -15 -11 0 -25 -7 -32 -15 -10 -12 -9
-15 4 -15 10 0 14 5 11 10 -4 6 6 10 23 10 16 0 35 7 42 15 17 21 6 30 -13 10z"/>
<path d="M553 640 c14 -11 31 -20 39 -20 7 0 0 9 -17 20 -39 26 -55 26 -22 0z"/>
<path d="M669 651 c7 -5 10 -14 7 -20 -4 -6 -11 -9 -16 -6 -5 3 -11 1 -14 -4
-4 -5 -2 -12 4 -16 5 -3 8 -16 5 -28 -2 -12 2 -35 9 -52 14 -29 14 -30 15 -5
1 14 4 36 8 49 4 17 3 22 -5 17 -8 -5 -12 0 -12 13 0 38 19 31 29 -11 l11 -43
-6 40 c-3 22 -6 47 -6 55 0 9 -9 17 -21 17 -16 2 -18 0 -8 -6z"/>
<path d="M830 651 c0 -6 4 -13 10 -16 6 -3 7 1 4 9 -7 18 -14 21 -14 7z"/>
<path d="M1575 650 c3 -5 8 -10 11 -10 2 0 4 5 4 10 0 6 -5 10 -11 10 -5 0 -7
-4 -4 -10z"/>
<path d="M2510 645 c-10 -12 -9 -15 6 -16 11 0 4 -5 -14 -10 -18 -5 -30 -14
-26 -20 4 -6 11 -6 20 2 8 6 17 9 21 5 3 -3 2 -6 -3 -6 -5 0 -11 -12 -12 -27
-3 -34 8 -23 25 25 21 60 12 82 -17 47z"/>
<path d="M1815 640 c-3 -5 -1 -10 4 -10 6 0 11 5 11 10 0 6 -2 10 -4 10 -3 0
-8 -4 -11 -10z"/>
<path d="M2362 625 c-14 -31 -15 -38 -3 -31 5 4 11 1 13 -5 2 -7 4 4 4 25 0
20 -1 36 -1 36 -1 0 -7 -11 -13 -25z"/>
<path d="M1125 625 c-25 -12 -26 -14 -9 -15 12 0 27 7 34 15 15 18 14 18 -25
0z"/>
<path d="M730 618 c0 -9 5 -20 10 -23 13 -8 13 5 0 25 -8 13 -10 13 -10 -2z"/>
<path d="M1598 603 c7 -3 16 -2 19 1 4 3 -2 6 -13 5 -11 0 -14 -3 -6 -6z"/>
<path d="M2610 599 c0 -5 5 -7 10 -4 6 3 10 8 10 11 0 2 -4 4 -10 4 -5 0 -10
-5 -10 -11z"/>
<path d="M2004 585 c-19 -15 -19 -15 1 -9 16 5 15 2 -8 -20 -15 -15 -25 -31
-23 -35 3 -5 -15 -29 -39 -55 -25 -25 -42 -46 -39 -46 3 0 -2 -7 -10 -16 -17
-17 -21 -34 -8 -34 5 0 14 11 20 25 7 14 19 28 27 31 8 4 15 10 15 16 0 5 11
19 24 31 13 12 22 30 20 39 -1 11 9 25 27 35 23 14 26 19 16 32 -10 12 -8 14
10 9 13 -4 25 -3 27 1 9 14 -41 10 -60 -4z"/>
<path d="M2340 565 c0 -8 2 -15 4 -15 2 0 6 7 10 15 3 8 1 15 -4 15 -6 0 -10
-7 -10 -15z"/>
<path d="M1100 559 c0 -5 5 -7 10 -4 6 3 10 8 10 11 0 2 -4 4 -10 4 -5 0 -10
-5 -10 -11z"/>
<path d="M1256 557 c3 -10 9 -15 12 -12 3 3 0 11 -7 18 -10 9 -11 8 -5 -6z"/>
<path d="M1302 550 c-7 -11 -22 -20 -35 -21 -12 0 -16 -3 -9 -6 10 -4 10 -8 0
-21 -7 -9 1 -5 19 8 17 14 34 31 38 39 9 22 1 22 -13 1z"/>
<path d="M1405 554 c17 -9 36 -24 43 -33 10 -13 10 -11 1 12 -7 15 -18 27 -25
27 -7 0 -21 3 -31 6 -10 3 -4 -2 12 -12z"/>
<path d="M1775 554 c9 -9 19 -13 23 -10 3 4 0 11 -8 16 -24 15 -33 11 -15 -6z"/>
<path d="M1360 544 c0 -8 5 -12 10 -9 6 4 8 11 5 16 -9 14 -15 11 -15 -7z"/>
<path d="M2015 526 c-18 -13 -18 -14 8 -9 15 3 24 9 21 14 -7 12 -7 12 -29 -5z"/>
<path d="M1160 516 c0 -2 7 -7 16 -10 8 -3 12 -2 9 4 -6 10 -25 14 -25 6z"/>
<path d="M1880 510 c-8 -5 -12 -12 -9 -15 4 -3 12 1 19 10 14 17 11 19 -10 5z"/>
<path d="M1935 500 c-3 -5 -1 -10 4 -10 6 0 11 5 11 10 0 6 -2 10 -4 10 -3 0
-8 -4 -11 -10z"/>
<path d="M2320 507 c0 -1 -4 -18 -10 -36 -5 -19 -6 -30 -1 -25 10 11 24 64 16
64 -3 0 -5 -1 -5 -3z"/>
<path d="M1480 471 c0 -5 5 -13 10 -16 6 -3 10 -2 10 4 0 5 -4 13 -10 16 -5 3
-10 2 -10 -4z"/>
<path d="M1836 455 c-11 -8 -15 -15 -9 -15 6 0 16 7 23 15 16 19 11 19 -14 0z"/>
<path d="M1160 456 c0 -2 7 -7 16 -10 8 -3 12 -2 9 4 -6 10 -25 14 -25 6z"/>
<path d="M2206 444 c-9 -24 -2 -26 12 -4 7 11 8 20 3 20 -5 0 -12 -7 -15 -16z"/>
<path d="M720 446 c0 -2 8 -10 18 -17 15 -13 16 -12 3 4 -13 16 -21 21 -21 13z"/>
<path d="M2036 433 c-6 -14 -5 -15 5 -6 7 7 10 15 7 18 -3 3 -9 -2 -12 -12z"/>
<path d="M1116 407 c3 -10 9 -15 12 -12 3 3 0 11 -7 18 -10 9 -11 8 -5 -6z"/>
<path d="M1194 408 c6 -21 -3 -50 -13 -43 -4 2 -8 -2 -8 -10 0 -10 5 -11 19
-4 20 11 23 36 7 59 -9 13 -10 12 -5 -2z"/>
<path d="M1815 395 c-21 -12 -41 -28 -43 -34 -2 -6 12 -1 32 13 20 13 42 27
49 29 7 2 10 7 7 9 -3 3 -23 -5 -45 -17z"/>
<path d="M786 386 c9 -36 33 -85 35 -71 6 45 4 57 -18 77 l-25 23 8 -29z"/>
<path d="M1758 403 c6 -2 18 -2 25 0 6 3 1 5 -13 5 -14 0 -19 -2 -12 -5z"/>
<path d="M2175 400 c3 -5 8 -10 11 -10 2 0 4 5 4 10 0 6 -5 10 -11 10 -5 0 -7
-4 -4 -10z"/>
<path d="M2583 398 c-20 -26 -26 -41 -15 -34 12 7 36 46 29 46 -3 0 -9 -6 -14
-12z"/>
<path d="M1316 387 c3 -10 9 -15 12 -12 3 3 0 11 -7 18 -10 9 -11 8 -5 -6z"/>
<path d="M1704 386 c-10 -8 -16 -18 -11 -22 4 -4 7 -2 7 4 0 7 7 12 15 12 8 0
15 5 15 10 0 13 -3 13 -26 -4z"/>
<path d="M2147 363 c-11 -13 -17 -27 -14 -30 3 -2 13 7 23 21 22 34 15 42 -9
9z"/>
<path d="M1368 373 c7 -3 16 -2 19 1 4 3 -2 6 -13 5 -11 0 -14 -3 -6 -6z"/>
<path d="M1816 358 c3 -5 10 -6 15 -3 13 9 11 12 -6 12 -8 0 -12 -4 -9 -9z"/>
<path d="M1878 353 c7 -3 16 -2 19 1 4 3 -2 6 -13 5 -11 0 -14 -3 -6 -6z"/>
<path d="M1980 345 c-7 -9 -8 -15 -2 -15 5 0 12 7 16 15 3 8 4 15 2 15 -2 0
-9 -7 -16 -15z"/>
<path d="M1847 343 c-3 -5 4 -15 16 -23 21 -12 21 -12 7 6 -8 10 -15 20 -16
22 -1 2 -4 -1 -7 -5z"/>
<path d="M2550 339 c0 -5 5 -7 10 -4 6 3 10 8 10 11 0 2 -4 4 -10 4 -5 0 -10
-5 -10 -11z"/>
<path d="M1698 315 c-21 -11 -40 -26 -43 -34 -5 -12 -2 -11 12 1 10 9 31 22
47 28 26 10 28 9 15 -6 -23 -28 -20 -44 6 -34 13 5 26 6 31 2 4 -4 4 -2 1 5
-4 6 -17 9 -30 6 l-22 -6 22 19 c17 14 19 21 10 29 -8 7 -23 4 -49 -10z"/>
<path d="M2111 311 c-7 -5 -11 -15 -9 -22 3 -10 8 -7 17 9 13 24 12 26 -8 13z"/>
<path d="M938 287 c21 -23 22 -25 6 -56 -9 -18 -26 -36 -38 -41 l-21 -9 21 0
c45 -2 76 72 45 108 -10 11 -22 21 -26 21 -5 0 1 -10 13 -23z"/>
<path d="M1805 300 c-3 -5 -1 -10 4 -10 6 0 11 5 11 10 0 6 -2 10 -4 10 -3 0
-8 -4 -11 -10z"/>
<path d="M1940 285 c-7 -9 -11 -17 -9 -20 3 -2 10 5 17 15 14 24 10 26 -8 5z"/>
<path d="M2250 278 c0 -19 2 -20 10 -8 13 19 13 30 0 30 -5 0 -10 -10 -10 -22z"/>
<path d="M870 280 c0 -5 7 -7 15 -4 8 4 15 8 15 10 0 2 -7 4 -15 4 -8 0 -15
-4 -15 -10z"/>
<path d="M1171 283 c0 -4 4 -17 9 -28 8 -19 9 -19 9 2 1 12 -3 25 -9 28 -5 3
-10 3 -9 -2z"/>
<path d="M1280 286 c0 -2 8 -10 18 -17 15 -13 16 -12 3 4 -13 16 -21 21 -21
13z"/>
<path d="M841 262 c-11 -21 6 -63 29 -70 11 -4 10 0 -4 16 -12 14 -17 31 -14
47 6 30 2 32 -11 7z"/>
<path d="M1237 273 c-10 -9 -9 -33 1 -33 4 0 8 9 9 20 2 21 0 24 -10 13z"/>
<path d="M1908 265 c5 -11 7 -26 4 -34 -3 -8 0 -11 7 -7 15 10 14 19 -5 42
-15 19 -15 19 -6 -1z"/>
<path d="M2070 265 c-7 -9 -11 -18 -8 -20 3 -3 11 1 18 10 7 9 11 18 8 20 -3
3 -11 -1 -18 -10z"/>
<path d="M1755 229 c-75 -58 -166 -110 -197 -112 -39 -3 -35 -17 5 -17 18 0
39 -6 46 -13 11 -10 12 -8 6 10 -5 18 -1 25 18 32 14 6 28 15 32 20 3 6 10 11
16 11 7 0 -9 -51 -46 -142 -5 -13 -2 -18 10 -18 9 0 14 4 11 9 -3 4 1 17 9 27
8 10 15 29 15 42 0 12 4 22 8 22 5 0 8 10 7 22 -2 22 78 108 100 108 6 0 21
-12 35 -27 14 -15 20 -24 13 -20 -7 5 -9 0 -6 -13 3 -11 9 -17 14 -14 5 3 9
-4 9 -14 0 -18 24 -47 39 -47 10 0 1 -69 -11 -82 -6 -7 -7 -13 -2 -13 5 0 21
15 36 34 26 32 26 34 9 50 -10 9 -35 48 -56 86 -57 104 -60 106 -120 59z"/>
<path d="M886 245 c-3 -8 -1 -15 4 -15 6 0 10 6 11 13 0 6 4 3 8 -7 7 -19 8
-19 13 2 5 17 2 22 -12 22 -10 0 -20 -7 -24 -15z"/>
<path d="M1270 240 c0 -5 5 -10 10 -10 6 0 10 5 10 10 0 6 -4 10 -10 10 -5 0
-10 -4 -10 -10z"/>
<path d="M1345 240 c-3 -6 1 -7 9 -4 18 7 21 14 7 14 -6 0 -13 -4 -16 -10z"/>
<path d="M2236 235 c-3 -8 -1 -15 4 -15 6 0 10 7 10 15 0 8 -2 15 -4 15 -2 0
-6 -7 -10 -15z"/>
<path d="M1146 211 c-10 -19 -12 -32 -6 -36 6 -3 10 2 10 12 0 11 5 24 12 31
6 6 9 14 6 18 -4 3 -14 -8 -22 -25z"/>
<path d="M1071 211 c-8 -5 -9 -11 -3 -15 5 -3 15 1 22 9 14 16 3 20 -19 6z"/>
<path d="M1243 195 c0 -8 4 -12 9 -9 5 3 6 10 3 15 -9 13 -12 11 -12 -6z"/>
<path d="M1630 199 c0 -5 5 -7 10 -4 6 3 10 8 10 11 0 2 -4 4 -10 4 -5 0 -10
-5 -10 -11z"/>
<path d="M2227 191 c-4 -17 -3 -21 5 -13 5 5 8 16 6 23 -3 8 -7 3 -11 -10z"/>
<path d="M1566 184 c-50 -18 -54 -22 -19 -19 40 3 73 15 73 26 0 12 -6 11 -54
-7z"/>
<path d="M1890 188 c0 -4 5 -8 10 -8 6 0 9 -3 8 -7 -1 -5 6 -23 16 -42 l18
-35 12 29 c16 38 31 17 28 -40 -1 -39 -1 -39 8 -10 5 17 12 47 14 68 3 20 8
42 11 47 3 6 2 10 -4 10 -5 0 -12 -14 -16 -30 -4 -17 -11 -27 -17 -24 -5 3 -8
14 -5 23 3 12 -3 17 -17 19 -11 0 -16 -2 -11 -6 16 -11 16 -29 0 -42 -11 -9
-15 -5 -20 23 -4 19 -13 34 -21 34 -8 0 -14 -4 -14 -9z"/>
<path d="M1095 180 c-3 -5 1 -10 10 -10 9 0 13 5 10 10 -3 6 -8 10 -10 10 -2
0 -7 -4 -10 -10z"/>
<path d="M1192 170 c0 -14 2 -19 5 -12 2 6 2 18 0 25 -3 6 -5 1 -5 -13z"/>
<path d="M1460 181 c0 -6 4 -13 10 -16 6 -3 7 1 4 9 -7 18 -14 21 -14 7z"/>
<path d="M1480 150 c-8 -5 -10 -10 -5 -10 6 0 17 5 25 10 8 5 11 10 5 10 -5 0
-17 -5 -25 -10z"/>
<path d="M2030 141 c0 -11 -4 -23 -10 -26 -5 -3 -10 -12 -9 -18 0 -9 2 -8 6 1
2 6 8 10 13 7 4 -3 10 7 13 20 2 14 0 28 -4 31 -5 3 -9 -4 -9 -15z"/>
<path d="M2140 146 c0 -8 4 -17 9 -20 5 -4 7 3 4 14 -6 23 -13 26 -13 6z"/>
<path d="M2217 153 c-3 -5 -7 -24 -11 -43 -5 -31 -5 -32 5 -10 17 40 22 80 6
53z"/>
<path d="M1240 129 c0 -5 5 -7 10 -4 6 3 10 8 10 11 0 2 -4 4 -10 4 -5 0 -10
-5 -10 -11z"/>
<path d="M1405 120 c-16 -7 -17 -9 -3 -9 9 -1 20 4 23 9 7 11 7 11 -20 0z"/>
<path d="M1800 120 c-9 -6 -10 -10 -3 -10 6 0 15 5 18 10 8 12 4 12 -15 0z"/>
<path d="M2133 71 l-1 -46 14 33 c11 27 11 36 1 46 -10 10 -12 3 -14 -33z"/>
<path d="M1826 95 c3 -6 -1 -12 -8 -13 -51 -3 -101 -29 -118 -62 -14 -26 4
-27 22 -1 8 10 33 24 56 31 24 6 50 20 59 30 9 10 21 16 27 13 6 -3 8 -2 3 2
-12 13 -46 13 -41 0z"/>
<path d="M2760 100 c0 -5 5 -10 11 -10 5 0 7 5 4 10 -3 6 -8 10 -11 10 -2 0
-4 -4 -4 -10z"/>
<path d="M1197 93 c-10 -9 -9 -23 1 -23 5 0 9 7 9 15 0 17 -1 18 -10 8z"/>
<path d="M2475 90 c-3 -6 1 -7 10 -4 15 6 15 4 0 -32 -14 -35 -14 -37 0 -23
22 22 30 69 11 69 -8 0 -18 -4 -21 -10z"/>
<path d="M2869 83 c-13 -16 -12 -17 4 -4 16 13 21 21 13 21 -2 0 -10 -8 -17
-17z"/>
<path d="M1100 76 c0 -8 -6 -16 -12 -19 -7 -3 -4 -5 8 -4 15 1 20 6 16 19 -5
22 -12 24 -12 4z"/>
<path d="M1156 82 c-2 -4 -1 -14 5 -22 7 -12 9 -10 9 8 0 23 -5 28 -14 14z"/>
<path d="M1280 70 c-9 -6 -10 -10 -3 -10 6 0 15 5 18 10 8 12 4 12 -15 0z"/>
<path d="M2750 65 c0 -8 4 -15 10 -15 5 0 7 7 4 15 -4 8 -8 15 -10 15 -2 0 -4
-7 -4 -15z"/>
<path d="M2192 50 c0 -14 2 -19 5 -12 2 6 2 18 0 25 -3 6 -5 1 -5 -13z"/>
<path d="M2439 43 c-13 -17 -13 -17 6 -3 11 8 22 16 24 17 2 2 0 3 -6 3 -6 0
-17 -8 -24 -17z"/>
<path d="M1180 39 c0 -6 -7 -9 -15 -5 -8 3 -15 1 -15 -4 0 -14 18 -21 25 -10
9 15 28 12 19 -2 -4 -7 -3 -9 1 -5 15 13 14 37 -1 37 -8 0 -14 -5 -14 -11z"/>
<path d="M1876 33 c-6 -14 -5 -15 5 -6 7 7 10 15 7 18 -3 3 -9 -2 -12 -12z"/>
<path d="M1970 25 c13 -14 28 -25 33 -25 6 0 -2 11 -17 25 -15 14 -30 25 -33
25 -4 0 4 -11 17 -25z"/>
<path d="M2036 34 c-4 -9 -4 -19 -1 -22 2 -3 7 3 11 12 4 9 4 19 1 22 -2 3 -7
-3 -11 -12z"/>
<path d="M2080 26 c0 -31 6 -34 13 -6 3 11 1 23 -4 26 -5 3 -9 -6 -9 -20z"/>
<path d="M1116 17 c3 -10 9 -15 12 -12 3 3 0 11 -7 18 -10 9 -11 8 -5 -6z"/>
<path d="M1326 21 c-3 -5 1 -11 9 -15 9 -3 15 0 15 9 0 16 -16 20 -24 6z"/>
<path d="M2936 13 c-6 -14 -5 -15 5 -6 7 7 10 15 7 18 -3 3 -9 -2 -12 -12z"/>
<path d="M2110 16 c0 -2 7 -7 16 -10 8 -3 12 -2 9 4 -6 10 -25 14 -25 6z"/>
</g>
</svg>